<svg xmlns="http://www.w3.org/2000/svg" xmlns:xlink="http://www.w3.org/1999/xlink" width="40" height="40" viewBox="0 0 40 40"><defs><path id="hqsta" d="M691 1210.418v2.58a.646.646 0 0 1-.645.646h-.645v15.484h.645c.356 0 .645.289.645.645v2.58a.645.645 0 0 1-.645.646h-38.71a.645.645 0 0 1-.645-.645v-2.581c0-.356.289-.645.645-.645h.645v-15.484h-.645a.646.646 0 0 1-.645-.646v-2.58c0-.356.289-.645.645-.645h5.807v-1.935c0-.356.288-.646.645-.646h3.87c.357 0 .646.29.646.646v1.935h16.774v-1.935c0-.356.289-.646.645-.646h3.871c.356 0 .645.29.645.646v1.935h5.807c.356 0 .645.289.645.645zm-10.323-.645h2.581v-1.29h-2.58zm-21.935 0h2.58v-1.29h-2.58zm30.968 20.645h-37.42v1.29h37.42zm-34.84-1.29v-15.484h-1.29v15.484zm30.969 0v-15.484H656.16v15.484zm2.58 0v-15.484h-1.29v15.484zm1.29-18.065H652.29v1.29h37.42zm-16.774-13.548v-3.871c0-.357.29-.645.646-.645h6.451c.357 0 .645.288.645.645v3.87a.645.645 0 0 1-.645.646h-.645v.645a.645.645 0 0 1-.189.456l-1.101 1.102v.756l1.101 1.1a.646.646 0 0 1 .189.457v1.29a.644.644 0 0 1-.189.457l-1.29 1.29a.645.645 0 0 1-.456.189 3.23 3.23 0 0 1-3.226-3.226v-4.516h-.645a.645.645 0 0 1-.646-.645zm5.162.645h-2.58v4.516c-.001.972.72 1.793 1.684 1.92l.896-.897v-.755l-1.102-1.102a.645.645 0 0 1-.189-.456v-1.29c0-.171.068-.336.19-.456l1.1-1.102zm-3.871-1.29h5.161v-2.58h-5.161zm16.774-3.226v3.87a.645.645 0 0 1-.645.646h-.645v4.516a3.23 3.23 0 0 1-3.226 3.226.645.645 0 0 1-.456-.189l-1.29-1.29a.644.644 0 0 1-.19-.456v-1.29c0-.172.068-.336.19-.457l1.1-1.101v-.756l-1.1-1.102a.645.645 0 0 1-.19-.456v-.645h-.645a.645.645 0 0 1-.645-.645v-3.871c0-.357.289-.645.645-.645h6.452c.356 0 .645.288.645.645zm-2.58 4.516h-2.581v.378l1.1 1.102c.122.12.19.285.19.456v1.29a.645.645 0 0 1-.19.456l-1.1 1.102v.755l.896.897a1.936 1.936 0 0 0 1.684-1.92zm1.29-3.87h-5.162v2.58h5.162zm-38.71 3.225v-3.871c0-.357.289-.645.645-.645h6.452c.356 0 .645.288.645.645v3.87a.645.645 0 0 1-.645.646h-.645v.645a.645.645 0 0 1-.19.456l-1.1 1.102v.756l1.1 1.1c.121.122.19.286.19.457v1.29a.644.644 0 0 1-.19.457l-1.29 1.29a.645.645 0 0 1-.456.189 3.23 3.23 0 0 1-3.226-3.226v-4.516h-.645a.645.645 0 0 1-.645-.645zm5.161.645h-2.58v4.516c0 .972.72 1.793 1.684 1.92l.896-.897v-.755l-1.101-1.102a.645.645 0 0 1-.19-.456v-1.29c0-.171.069-.336.19-.456l1.101-1.102zm-3.87-1.29h5.16v-2.58h-5.16zm9.031.645v-3.871c0-.357.29-.645.646-.645h6.451c.357 0 .645.288.645.645v3.87a.645.645 0 0 1-.645.646h-.645v4.516a3.23 3.23 0 0 1-3.226 3.226.645.645 0 0 1-.456-.189l-1.29-1.29a.644.644 0 0 1-.19-.456v-1.29c0-.172.069-.336.19-.457l1.101-1.101v-.756l-1.101-1.102a.645.645 0 0 1-.19-.456v-.645h-.644a.645.645 0 0 1-.646-.645zm5.162.645h-2.58v.378l1.1 1.102c.121.12.19.285.19.456v1.29a.645.645 0 0 1-.19.456l-1.1 1.102v.755l.895.897a1.936 1.936 0 0 0 1.685-1.92zm-3.871-1.29h5.161v-2.58h-5.161zm-5.161 23.225h3.87v1.29h-3.87zm25.806 0h1.29v1.29h-1.29v1.291h-1.29v-1.29h-1.29v-1.29h1.29v-1.291h1.29zm-6.578.267a.645.645 0 0 1-.144.901l-9.032 6.452a.646.646 0 0 1-.935-.846l2.028-3.547h-2.758a.646.646 0 0 1-.545-.992l4.516-7.097a.645.645 0 0 1 .545-.299h5.161a.645.645 0 0 1 .483 1.07l-3.58 4.091h3.742c.206.002.399.1.52.267zm-2.532 1.024H671a.645.645 0 0 1-.483-1.07l3.58-4.091h-3.388l-3.695 5.806h2.696a.644.644 0 0 1 .56.968l-1.12 1.957z"/></defs><g><g transform="translate(-651 -1193)"><use xlink:href="#hqsta"/></g></g></svg>