<svg xmlns="http://www.w3.org/2000/svg" xmlns:xlink="http://www.w3.org/1999/xlink" width="40" height="40" viewBox="0 0 40 40"><defs><path id="vqmfa" d="M1289.667 1206.333v21.333h.666c.368 0 .667.299.667.667v4a.667.667 0 0 1-.667.667h-38.666a.666.666 0 0 1-.667-.667v-4c0-.368.298-.667.667-.667h.666v-21.333h-.666a.666.666 0 0 1-.667-.666v-4c0-.369.298-.667.667-.667h2.666v-3.333c0-.369.299-.667.667-.667h4c.368 0 .667.298.667.667V1201h2.666v-6a2 2 0 0 1 2-2h13.334a2 2 0 0 1 2 2v6h2.666v-3.333c0-.369.299-.667.667-.667h4c.368 0 .667.298.667.667V1201h2.666c.368 0 .667.298.667.667v4a.667.667 0 0 1-.667.666zm-6-5.333h2.666v-2.667h-2.666zm-20 0H1265v-4.667c0-.368.298-.667.667-.667h10.666c.368 0 .667.299.667.667V1201h1.333v-6a.667.667 0 0 0-.666-.667h-13.334a.667.667 0 0 0-.666.667zm2.666-4v4h9.334v-4zm-10.666 4h2.666v-2.667h-2.666zm34 28h-37.334v2.667h37.334zm-1.334-1.334v-21.333h-34.666v21.333zm1.334-22.666v-2.667h-37.334V1205zm-32 5.333v13.334h8V1225H1257a.667.667 0 0 1-.667-.667v-14.667c0-.368.299-.666.667-.666h12.667v1.333zm28-.667v14.667a.667.667 0 0 1-.667.667h-12v-1.333h11.333v-13.334h-8V1209H1285c.368 0 .667.298.667.666zm-8.196 7.139l-9.333 9.333a.667.667 0 0 1-1.118-.634l1.797-7.125-3.822-.046a.667.667 0 0 1-.466-1.138l9.333-9.333a.667.667 0 0 1 1.118.633l-1.793 7.172H1277a.667.667 0 0 1 .471 1.138zm-2.08.195h-3.058a.667.667 0 0 1-.647-.824l1.417-5.667-6.512 6.512 3.084.037a.667.667 0 0 1 .639.83l-1.411 5.6zm-12.391-4v1.333h-1.333v1.334h-1.334v-1.334H1259V1213h1.333v-1.334h1.334V1213zm16 0h4v1.333h-4z"/></defs><g><g transform="translate(-1251 -1193)"><use fill="#fff" xlink:href="#vqmfa"/></g></g></svg>