<svg xmlns="http://www.w3.org/2000/svg" xmlns:xlink="http://www.w3.org/1999/xlink" width="45" height="40" viewBox="0 0 45 40"><defs><path id="l1lya" d="M394.379 395.043c0 .48-.394.87-.88.87a.875.875 0 0 1-.878-.87c0-.48.394-.87.879-.87s.879.39.879.87zm21.62 22.608v3.479c0 .48-.393.869-.878.869h-43.242a.874.874 0 0 1-.879-.87v-3.478c0-1.133.735-2.1 1.758-2.459v-19.28h-.88a.875.875 0 0 1-.878-.87c0-.48.393-.869.879-.869h.879v-.87c0-1.438 1.182-2.608 2.636-2.608h.88v-.87c0-1.133.734-2.1 1.757-2.46v-2.757c0-.48.394-.87.88-.87h3.515c.485 0 .879.39.879.87v2.758a2.615 2.615 0 0 1 1.757 2.459v.87h16.875v-.87c0-1.133.735-2.1 1.758-2.46v-2.757c0-.48.394-.87.88-.87h3.515c.485 0 .879.39.879.87v2.758a2.615 2.615 0 0 1 1.757 2.459v.87h.88c1.453 0 2.636 1.17 2.636 2.608v.87h.879c.485 0 .879.39.879.87s-.394.87-.879.87h-.879v19.28A2.614 2.614 0 0 1 416 417.65zm-10.546-30.435h1.758v-1.739h-1.758zm-1.758 3.479h5.274v-.87c0-.48-.395-.87-.88-.87h-3.515a.875.875 0 0 0-.879.87zm-23.906-3.479h1.758v-1.739h-1.758zm-1.758 3.479h5.274v-.87c0-.48-.395-.87-.88-.87h-3.515a.875.875 0 0 0-.879.87zm-3.515 24.348h37.968v-19.13h-15.468a.875.875 0 0 1-.88-.87c0-.48.394-.87.88-.87h15.468v-.87a.876.876 0 0 0-.879-.87h-36.21a.876.876 0 0 0-.88.87v.87h15.47c.485 0 .878.39.878.87s-.393.87-.879.87h-15.468zm39.726 2.608c0-.48-.394-.87-.879-.87h-39.726a.875.875 0 0 0-.88.87v2.609h41.485zm-12.305-33.043c0 .48-.393.87-.878.87H395.8l-1.515 2.997a.88.88 0 0 1-.786.48l-.062-.001a.878.878 0 0 1-.772-.593l-1.087-3.226-.809 1.6a.88.88 0 0 1-.786.481h-4.043a.874.874 0 0 1-.879-.87c0-.48.394-.869.88-.869h3.5l1.514-2.997a.88.88 0 0 1 .848-.48.879.879 0 0 1 .772.594l1.087 3.226.809-1.601a.88.88 0 0 1 .786-.48h5.8c.486 0 .88.388.88.869zm-15.996 20.87c0 .48-.393.869-.879.869h-3.515a.874.874 0 0 1-.88-.87c0-.48.394-.87.88-.87h3.515c.486 0 .88.39.88.87zm3.516 0c0 3.356-2.76 6.086-6.152 6.086-3.393 0-6.153-2.73-6.153-6.086 0-3.357 2.76-6.088 6.153-6.088 3.392 0 6.152 2.73 6.152 6.088zm-1.758 0c0-2.398-1.971-4.348-4.394-4.348-2.424 0-4.395 1.95-4.395 4.348 0 2.397 1.971 4.347 4.395 4.347 2.423 0 4.394-1.95 4.394-4.347zm18.633 0c0 .48-.394.869-.879.869h-.879v.87c0 .48-.393.87-.879.87a.875.875 0 0 1-.879-.87v-.87h-.879a.874.874 0 0 1-.878-.87c0-.48.393-.87.878-.87h.88v-.869c0-.48.393-.87.878-.87.486 0 .88.39.88.87v.87h.878c.485 0 .879.39.879.87zm3.516 0c0 3.356-2.76 6.086-6.153 6.086-3.392 0-6.152-2.73-6.152-6.086 0-3.357 2.76-6.088 6.152-6.088 3.393 0 6.153 2.73 6.153 6.088zm-1.758 0c0-2.398-1.972-4.348-4.395-4.348-2.423 0-4.394 1.95-4.394 4.348 0 2.397 1.971 4.347 4.394 4.347s4.395-1.95 4.395-4.347z"/></defs><g><g transform="translate(-371 -382)"><use xlink:href="#l1lya"/></g></g></svg>