<svg xmlns="http://www.w3.org/2000/svg" xmlns:xlink="http://www.w3.org/1999/xlink" width="31" height="31" viewBox="0 0 31 31"><defs><path id="vfyea" d="M1345.5 17.937c-7.478 0-13.563 6.085-13.563 13.562 0 7.478 6.085 13.563 13.563 13.563 7.477 0 13.562-6.085 13.562-13.563 0-7.477-6.085-13.562-13.562-13.562 0 0 7.477 0 0 0zm0-1.938c8.56 0 15.5 6.94 15.5 15.5 0 8.56-6.94 15.5-15.5 15.5-8.56 0-15.5-6.94-15.5-15.5 0-8.56 6.94-15.5 15.5-15.5zm8.185 22.617l-1.241 1.24c-.221.222-.87.36-.891.36a14.65 14.65 0 0 1-10.484-4.285 14.665 14.665 0 0 1-4.288-10.52c0-.002.142-.632.363-.852l1.242-1.24c.454-.457 1.326-.663 1.937-.459l.261.087c.61.204 1.25.878 1.417 1.499l.625 2.29c.168.624-.059 1.51-.513 1.963l-.829.829a8.801 8.801 0 0 0 6.19 6.19l.828-.828c.456-.456 1.342-.683 1.962-.515l2.292.627c.62.17 1.294.806 1.498 1.415l.087.265c.203.609-.002 1.482-.456 1.934z"/></defs><g><g transform="translate(-1330 -16)"><use xlink:href="#vfyea"/></g></g></svg>