<svg xmlns="http://www.w3.org/2000/svg" xmlns:xlink="http://www.w3.org/1999/xlink" width="80" height="59" viewBox="0 0 80 59"><defs><path id="152ma" d="M800.311 1153.95v17.482c0 .696-.56 1.26-1.253 1.26a1.257 1.257 0 0 1-1.252-1.26v-17.482c0-.788-.637-1.429-1.42-1.429h-61.461c-.783 0-1.42.641-1.42 1.429v40.342c0 .788.637 1.428 1.42 1.428h38.747c.692 0 1.253.565 1.253 1.261 0 .697-.561 1.261-1.253 1.261h-38.747c-2.165 0-3.925-1.772-3.925-3.95v-40.342c0-2.178 1.76-3.95 3.925-3.95h61.461c2.164 0 3.925 1.772 3.925 3.95zM811 1191.602c0 9.593-7.755 17.398-17.286 17.398-9.531 0-17.286-7.805-17.286-17.398 0-9.592 7.754-17.397 17.286-17.397 9.531 0 17.286 7.804 17.286 17.397zm-2.505 0c0-8.202-6.63-14.876-14.781-14.876-8.15 0-14.78 6.674-14.78 14.876 0 8.203 6.63 14.876 14.78 14.876 8.15 0 14.78-6.673 14.78-14.876zm-53.612-29.584v8.069a2.6 2.6 0 0 1-2.589 2.605h-10.689a2.6 2.6 0 0 1-2.588-2.605v-8.069a2.6 2.6 0 0 1 2.588-2.605h10.69a2.6 2.6 0 0 1 2.588 2.605zm-10.522 8.153v-8.237h-2.756a.084.084 0 0 0-.083.084v8.069c0 .046.037.084.083.084zm8.017-8.153a.084.084 0 0 0-.084-.084h-5.428v2.858h1.42c.692 0 1.253.564 1.253 1.26 0 .696-.561 1.26-1.253 1.26h-1.42v2.859h5.428a.084.084 0 0 0 .084-.084zm39.916 3.362c0 4.032-3.259 7.312-7.265 7.312a7.236 7.236 0 0 1-4.01-1.216 7.191 7.191 0 0 1-4.007 1.216c-4.006 0-7.265-3.28-7.265-7.312s3.26-7.312 7.265-7.312c1.436 0 2.83.426 4.012 1.215a7.188 7.188 0 0 1 4.005-1.215c4.006 0 7.265 3.28 7.265 7.312zm-14.53 0a7.3 7.3 0 0 1 1.382-4.282 4.73 4.73 0 0 0-2.134-.508c-2.624 0-4.76 2.149-4.76 4.79 0 2.642 2.136 4.79 4.76 4.79.766 0 1.49-.183 2.13-.508a7.333 7.333 0 0 1-1.378-4.282zm12.025 0c0-2.642-2.135-4.79-4.76-4.79s-4.76 2.148-4.76 4.79c0 .925.266 1.817.751 2.58.475-.745.752-1.631.752-2.58 0-.696.561-1.26 1.253-1.26.692 0 1.253.564 1.253 1.26a7.301 7.301 0 0 1-1.382 4.281c.657.332 1.387.51 2.133.51 2.625 0 4.76-2.15 4.76-4.791zm-37.578 15.464c0 .697-.561 1.261-1.253 1.261H740.27a1.257 1.257 0 0 1-1.252-1.26c0-.697.56-1.261 1.252-1.261h10.69c.69 0 1.252.564 1.252 1.26zm21.378 8.069c0 .696-.561 1.26-1.253 1.26H740.27a1.257 1.257 0 0 1-1.252-1.26c0-.697.56-1.261 1.252-1.261h32.067c.692 0 1.253.564 1.253 1.26zm-5.345-8.069c0 .697-.56 1.261-1.252 1.261h-10.69a1.257 1.257 0 0 1-1.252-1.26c0-.697.56-1.261 1.253-1.261h10.689c.691 0 1.252.564 1.252 1.26zm8.017 0c0 .697-.561 1.261-1.253 1.261h-2.672a1.257 1.257 0 0 1-1.253-1.26c0-.697.561-1.261 1.253-1.261h2.672c.692 0 1.253.564 1.253 1.26zm27.691 6.27l-12.025 12.104a1.245 1.245 0 0 1-1.771 0l-6.68-6.724a1.266 1.266 0 0 1 0-1.783 1.246 1.246 0 0 1 1.77 0l5.796 5.832 11.139-11.211a1.247 1.247 0 0 1 1.771 0c.49.492.49 1.29 0 1.783z"/></defs><g><g transform="translate(-731 -1150)"><use xlink:href="#152ma"/></g></g></svg>