<svg xmlns="http://www.w3.org/2000/svg" xmlns:xlink="http://www.w3.org/1999/xlink" width="44" height="40" viewBox="0 0 44 40"><defs><path id="zrwka" d="M692.92 990.5v.017l-2.313 8.416a2.901 2.901 0 0 1-1.296 1.666l-8.423 4.946-1.324 5.455-8.387-3.324 3.1-9.946a3.115 3.115 0 0 1 1.016-1.33l5.821-4.471a2.425 2.425 0 0 1 3.337.31 2.478 2.478 0 0 1-.09 3.351l-2.186 2.231.598.274 3.518-2.642c.29-1.001 1.26-4.307 1.823-6.265a2.476 2.476 0 0 1 3.065-1.694l.09.027a2.456 2.456 0 0 1 1.65 2.978zm-2.222-1.221l-.073-.028a.67.67 0 0 0-.788.456c-.671 2.331-1.895 6.52-1.904 6.566l-.082.292-4.87 3.643-3.925-1.813 3.999-4.089a.638.638 0 0 0 .018-.874.617.617 0 0 0-.844-.073l-.009.009-5.848 4.49a1.4 1.4 0 0 0-.399.519l-2.566 8.233 4.887 1.93 1.016-4.17 9.076-5.337a1.13 1.13 0 0 0 .48-.62l2.303-8.37a.608.608 0 0 0-.471-.764zm-19.866 18.378l-8.387 3.325-1.324-5.456-8.414-4.945a2.881 2.881 0 0 1-1.305-1.667l-.01-.018-2.311-8.406a2.452 2.452 0 0 1 1.65-2.978l.09-.027a2.48 2.48 0 0 1 3.065 1.702c.562 1.959 1.523 5.265 1.813 6.257l3.518 2.642.599-.274-2.194-2.24a2.466 2.466 0 0 1-.091-3.343 2.416 2.416 0 0 1 3.337-.31l5.82 4.473c.454.337.808.801 1.016 1.33l.045.045zm-7.136.884l4.86-1.94-2.566-8.233a1.25 1.25 0 0 0-.399-.52l-.018-.008-5.839-4.49a.617.617 0 0 0-.843.073.635.635 0 0 0 .009.865l4.008 4.089-3.926 1.812-4.87-3.643-.081-.29c-.009-.037-1.233-4.236-1.904-6.558a.667.667 0 0 0-.789-.465l-.072.028a.642.642 0 0 0-.445.783l2.303 8.37c.082.254.245.482.48.619l9.077 5.337zm24.527-27.668v2.267c0 1.795-1.487 3.252-3.274 3.252h-.67a4.079 4.079 0 0 1-2.72 2.732 4.078 4.078 0 0 1-5.078-2.732h-11.352a4.079 4.079 0 0 1-2.72 2.732 4.078 4.078 0 0 1-5.078-2.732h-.28c-1.796 0-3.283-1.457-3.283-3.26v-1.986a3.271 3.271 0 0 1 2.412-3.142l5.141-1.403 3.056-4.025a4.07 4.07 0 0 1 3.21-1.576h10.236a3.99 3.99 0 0 1 3.418 1.885l2.376 3.798 2.684 1.22a3.285 3.285 0 0 1 1.922 2.97zm-24.735 4.344a2.257 2.257 0 1 0-4.515 0 2.263 2.263 0 0 0 2.257 2.268 2.269 2.269 0 0 0 2.258-2.268zm19.14 0a2.263 2.263 0 0 0-2.257-2.268 2.263 2.263 0 0 0-2.258 2.268 2.263 2.263 0 0 0 2.258 2.268 2.269 2.269 0 0 0 2.257-2.268zm3.79-2.095v-2.268a1.46 1.46 0 0 0-.86-1.311l-2.939-1.33a.874.874 0 0 1-.39-.337l-2.52-4.034a2.178 2.178 0 0 0-1.877-1.03h-10.237c-.689 0-1.342.32-1.768.866l-3.246 4.262a.94.94 0 0 1-.49.328l-5.43 1.485a1.458 1.458 0 0 0-1.08 1.393h.01v1.994c0 .793.68 1.43 1.468 1.43h.155c.299-1.912 2.003-3.451 4.025-3.451 2.022 0 3.709 1.539 4.017 3.451h11.089c.308-1.912 2.013-3.47 4.035-3.47 2.022 0 3.708 1.54 4.016 3.452h.553c.79 0 1.47-.638 1.47-1.43z"/></defs><g><g transform="translate(-649 -971)"><use xlink:href="#zrwka"/></g></g></svg>