<svg xmlns="http://www.w3.org/2000/svg" xmlns:xlink="http://www.w3.org/1999/xlink" width="35" height="40" viewBox="0 0 35 40"><defs><path id="rrfla" d="M988.962 978.171c-.75 4.516-3.654 8.505-7.775 10.693a19.597 19.597 0 0 1-1.278 2.508c-1.495 2.461-3.347 4.172-5.387 5.02-.232 2.098 1.186 4.09 3.333 4.563l.012.003a.93.93 0 0 1 .728.9v4.247h1.755c1.565 0 2.838 1.246 2.838 2.777v2.192a.936.936 0 0 1-.946.926h-21.394a.936.936 0 0 1-.946-.926v-2.192c0-1.531 1.273-2.777 2.838-2.777h1.755v-4.247a.93.93 0 0 1 .726-.9c.005 0 .008-.003.012-.003 2.132-.47 3.547-2.442 3.337-4.524-2.076-.835-3.962-2.561-5.479-5.06a19.58 19.58 0 0 1-1.278-2.507c-4.12-2.188-7.025-6.177-7.775-10.693a2.816 2.816 0 0 1 .662-2.314 2.984 2.984 0 0 1 2.256-1.021h2.856v-.874c0-1.082.9-1.962 2.005-1.962h19.366c1.105 0 2.005.88 2.005 1.962v.874h2.856c.87 0 1.692.372 2.256 1.021.558.642.8 1.486.662 2.314zm-28.141 7.843c-.66-2.366-1.009-4.953-1.009-7.623v-1.704h-2.856c-.314 0-.611.135-.815.37a.983.983 0 0 0-.236.817c.535 3.22 2.321 6.134 4.916 8.14zm1.92 21.942a.937.937 0 0 0-.947.926v1.266h19.502v-1.266a.937.937 0 0 0-.946-.926zm3.647-5.173v3.322h10.315v-3.322zm2.48-1.851h5.363a6.024 6.024 0 0 1-1.625-4.007 7.7 7.7 0 0 1-2.123.012 5.931 5.931 0 0 1-.976 3.178 6.153 6.153 0 0 1-.638.817zm12.428-26.97c0-.061-.05-.11-.113-.11h-19.366a.112.112 0 0 0-.113.11v4.429c0 4.56 1.07 8.835 3.014 12.035 1.851 3.05 4.26 4.728 6.782 4.728 2.522 0 4.931-1.679 6.783-4.728 1.943-3.2 3.013-7.475 3.013-12.035zm5.563 3.095a1.078 1.078 0 0 0-.815-.37h-2.856v1.704c0 2.67-.348 5.257-1.008 7.623 2.594-2.006 4.38-4.92 4.915-8.14a.983.983 0 0 0-.236-.817z"/></defs><g><g transform="translate(-954 -972)"><use xlink:href="#rrfla"/></g></g></svg>