<svg xmlns="http://www.w3.org/2000/svg" xmlns:xlink="http://www.w3.org/1999/xlink" width="24" height="40" viewBox="0 0 24 40"><defs><path id="33jma" d="M382.91 986.013a.891.891 0 0 0-.798-.489H372.8l3.99-8.131a.87.87 0 0 0-.414-1.17.895.895 0 0 0-1.188.407l-4.607 9.389a.865.865 0 0 0 .047.847c.163.256.448.41.754.41h8.925l-14.355 18.394 4.517-14.166a.865.865 0 0 0-.131-.781.894.894 0 0 0-.717-.358h-8.498l5.925-17.612h10.043l-.262.534a.87.87 0 0 0 .414 1.17.896.896 0 0 0 1.188-.407l.88-1.792a.865.865 0 0 0-.048-.847.893.893 0 0 0-.754-.41h-12.104a.889.889 0 0 0-.844.6l-6.515 19.365a.866.866 0 0 0 .124.789.894.894 0 0 0 .721.363h8.518l-5.658 17.742a.871.871 0 0 0 .438 1.04.901.901 0 0 0 1.116-.244l18.514-23.721a.866.866 0 0 0 .092-.922z"/></defs><g><g transform="translate(-359 -971)"><use xlink:href="#33jma"/></g></g></svg>