<svg xmlns="http://www.w3.org/2000/svg" xmlns:xlink="http://www.w3.org/1999/xlink" width="40" height="40" viewBox="0 0 40 40"><defs><path id="gynda" d="M788.174 505.521c0 .48-.39.87-.87.87h-2.608v1.74h.87a.87.87 0 0 1 0 1.738h-.87v2.609a.87.87 0 0 1-1.74 0v-6.957c0-.48.39-.87.87-.87h3.478c.48 0 .87.39.87.87zM816 509c0 11.027-8.972 20-20 20s-20-8.973-20-20c0-11.028 8.972-20 20-20s20 8.972 20 20zm-1.74 0c0-10.07-8.19-18.261-18.26-18.261-10.07 0-18.261 8.191-18.261 18.26 0 10.07 8.191 18.261 18.26 18.261 10.07 0 18.262-8.19 18.262-18.26zm-6.865-8.018a.869.869 0 0 1-1.223-.134A12.983 12.983 0 0 0 796 495.957c-3.97 0-7.678 1.783-10.174 4.893a.869.869 0 1 1-1.355-1.089A14.719 14.719 0 0 1 796 494.217c4.5 0 8.702 2.021 11.529 5.543.3.374.241.921-.134 1.222zm-.677 18.181c-2.828 2.98-6.633 4.62-10.718 4.62s-7.89-1.64-10.716-4.62a.867.867 0 0 1 .033-1.23.867.867 0 0 1 1.227.034c2.494 2.628 5.852 4.076 9.456 4.076 3.603 0 6.962-1.448 9.457-4.076a.87.87 0 0 1 1.261 1.196zm-11.843-7.3a.87.87 0 0 1-1.23 1.23l-1.993-1.994v1.38a.87.87 0 0 1-1.74 0v-6.958c0-.48.39-.87.87-.87h1.74a2.612 2.612 0 0 1 2.608 2.61c0 1.323-.991 2.42-2.271 2.586zm-3.223-3.733h.87c.478 0 .87-.39.87-.87s-.392-.869-.87-.869h-.87zm10.435 4.348c0 .48-.39.87-.87.87h-3.478a.87.87 0 0 1-.87-.87v-6.957c0-.48.39-.87.87-.87h3.478a.87.87 0 0 1 0 1.74h-2.608v1.74h.87a.87.87 0 0 1 0 1.738h-.87v1.74h2.608c.48 0 .87.389.87.87zm6.956 0c0 .48-.39.87-.87.87h-3.477a.87.87 0 0 1-.87-.87v-6.957c0-.48.39-.87.87-.87h3.478a.87.87 0 0 1 0 1.74h-2.609v1.74h.87a.87.87 0 0 1 0 1.738h-.87v1.74h2.609c.48 0 .87.389.87.87z"/></defs><g><g transform="translate(-776 -489)"><use xlink:href="#gynda"/></g></g></svg>