<?xml version="1.0"?>
<svg xmlns="http://www.w3.org/2000/svg" id="Layer_1" data-name="Layer 1" viewBox="0 0 512 512" width="512" height="512"><title>Ink</title><path d="M392.962,184.47,370.253,168.6A45.168,45.168,0,0,1,351,131.781V119h21.091A8.161,8.161,0,0,0,380,110.726V17.209A8.1,8.1,0,0,0,372.091,9H140.437A8.564,8.564,0,0,0,132,17.209v93.517A8.62,8.62,0,0,0,140.437,119H161v12.781A45.115,45.115,0,0,1,141.8,168.6l-22.729,15.87A61.2,61.2,0,0,0,93,234.38V452.39A50.826,50.826,0,0,0,143.621,503H368.379A50.826,50.826,0,0,0,419,452.39V234.38A61.166,61.166,0,0,0,392.962,184.47ZM169,103V25h15v78Zm31-78h16v78H200Zm32,0h16v78H232Zm32,0h16v78H264Zm32,0h16v78H296Zm32,0h15v78H328Zm36,78h-5V25h5ZM148,25h5v78h-5ZM109,253H403V422H109ZM368.379,487H143.621A34.808,34.808,0,0,1,109,452.39V438H403v14.39A34.808,34.808,0,0,1,368.379,487ZM403,237H109v-2.62a45.151,45.151,0,0,1,19.237-36.819l22.71-15.871A61.181,61.181,0,0,0,177,131.781V119H335v12.781a61.128,61.128,0,0,0,26,49.909l22.729,15.871A45.187,45.187,0,0,1,403,234.38Z"/><path d="M303.181,331.491c-.125-.212-.259-.419-.4-.619L262.5,274.543a8.2,8.2,0,0,0-6.5-3.543h0a8.2,8.2,0,0,0-6.493,3.535l-40.279,56.072c-.15.207-.29.474-.418.7-8.866,15.21-8.769,33.695.258,49.405a53.967,53.967,0,0,0,93.911-.04C311.964,364.989,312.04,346.609,303.181,331.491ZM289.1,372.719a37.971,37.971,0,0,1-66.156.044c-6.167-10.733-6.34-22.752-.49-33.035l33.54-46.6,33.561,46.76C295.386,350.078,295.226,362.024,289.1,372.719Z"/></svg>
