<svg height="597pt" viewBox="-19 -34 597.33351 597" width="597pt" xmlns="http://www.w3.org/2000/svg"><path d="m551.773438 289.507812c-6.273438-6.582031-14.960938-10.316406-24.050782-10.351562h-17.738281c-5.523437 0-10-4.476562-10-10s4.476563-10 10-10c15.929687.054688 29.113281-12.371094 29.996094-28.28125.382812-7.835938-2.519531-15.480469-7.996094-21.097656-6.410156-6.765625-15.320313-10.605469-24.644531-10.617188h-147.351563c-16.566406 0-30-13.433594-30-30v-119.996094c-.035156-27.601562-22.394531-49.964843-49.996093-50h-20c-5.523438 0-10 4.480469-10 10v60c-.082032 71.757813-58.234376 129.910157-129.996094 129.996094v283.808594l.742187.371094c20.824219 10.371094 43.769531 15.78125 67.035157 15.808594h292.210937c16.566406 0 30-13.433594 30-30 0-16.566407-13.433594-29.996094-30-29.996094-5.523437 0-10-4.480469-10-10 0-5.523438 4.476563-10 10-10h30c16.566406 0 29.996094-13.433594 29.996094-30s-13.429688-30-29.996094-30c-5.523437 0-10-4.476563-10-10 0-5.519532 4.476563-10 10-10h19.996094c16.03125.046875 29.257812-12.542969 30-28.558594.289062-7.859375-2.683594-15.492188-8.207031-21.085938zm0 0"/><path d="m0 169.160156h99.996094v359.988282h-99.996094zm0 0"/></svg>