<svg xmlns="http://www.w3.org/2000/svg" xmlns:xlink="http://www.w3.org/1999/xlink" width="30" height="30" viewBox="0 0 30 30"><defs><path id="hfi8a" d="M1348.364 1439.656c.045.878-.181 2.127-1.465 3.256a3.747 3.747 0 0 1-.44 2.402c-.683 1.199-2.032 2.014-4.007 2.422-.839.176-1.845.263-3 .263-.672 0-1.395-.03-2.163-.087-4.24.081-8.37-.427-8.602-.458l-1.517-.176a2.732 2.732 0 0 1-1.549.477h-3.936c-1.478 0-2.685-1.167-2.685-2.61v-10.194c0-1.437 1.2-2.61 2.685-2.61h3.936c.465 0 .897.113 1.278.313a6.731 6.731 0 0 1 1.265-1.844c.032-.031.065-.063.103-.088 2.02-1.512 4.408-6.957 5.26-9.178-.09-.69-.174-2.183.542-2.992a1.64 1.64 0 0 1 1.246-.552c.503 0 2.213.112 3.284 1.549 1.02 1.368 1.072 3.413.168 6.085-.761 2.246-.832 3.244-.806 3.645.348-.075.69-.144 1.013-.2h.006c.058-.013 1.478-.32 3.175-.396 2.414-.113 4.156.295 5.183 1.205 1.4 1.242 1.239 2.842.82 3.858.36.458.8 1.205.838 2.158.039.866-.264 1.707-.897 2.49.123.32.239.754.265 1.262zm-26.68 6.399h3.937c.517 0 .943-.408.943-.916v-10.195a.93.93 0 0 0-.943-.915h-3.936c-.517 0-.943.407-.943.915v10.201c0 .502.42.916.943.916zm25.57-10.088c-.033-.834-.71-1.455-.717-1.462a.823.823 0 0 1-.155-1.091c.084-.132.827-1.362-.219-2.29-1.233-1.092-4.782-.835-6.763-.414l-.084.018c-.355.057-.73.132-1.123.22-.413.144-.981.126-1.407-.244-.858-.741-.768-2.422.316-5.615.71-2.096.736-3.677.078-4.561-.555-.747-1.478-.84-1.82-.847-.155.257-.194 1.117-.084 1.82a.772.772 0 0 1-.039.42c-.122.326-2.956 7.86-5.853 10.093-.762.797-1.084 1.732-1.2 2.153.077.244.122.508.122.777v10.201c0 .188-.02.377-.058.552l.652.075h.006c.045.007 4.24.534 8.39.446h.09c1.95.15 3.537.106 4.705-.138 1.458-.301 2.42-.84 2.852-1.594.452-.784.175-1.612.175-1.618a.84.84 0 0 1 .296-.966c.852-.622 1.259-1.349 1.214-2.17-.033-.603-.297-1.042-.297-1.049a.825.825 0 0 1 .116-1.022c.561-.565.832-1.136.807-1.694z"/></defs><g><g transform="translate(-1319 -1418)"><use fill="#54657e" xlink:href="#hfi8a"/></g></g></svg>