<svg xmlns="http://www.w3.org/2000/svg" xmlns:xlink="http://www.w3.org/1999/xlink" preserveAspectRatio="xMidYMid" width="13.999" height="20" viewBox="0 0 13.999 20">
  <defs>
    
  </defs>
  <path d="M7.007,-0.000 C3.147,-0.000 0.007,3.250 0.007,7.245 C0.007,12.203 6.271,19.482 6.538,19.789 C6.788,20.078 7.226,20.078 7.476,19.789 C7.742,19.482 14.007,12.203 14.007,7.245 C14.007,3.250 10.866,-0.000 7.007,-0.000 ZM7.007,10.890 C5.065,10.890 3.485,9.255 3.485,7.245 C3.485,5.235 5.065,3.600 7.007,3.600 C8.949,3.600 10.528,5.235 10.528,7.245 C10.528,9.255 8.949,10.890 7.007,10.890 Z" class="cls-1"/>
</svg>
