<svg xmlns="http://www.w3.org/2000/svg" xmlns:xlink="http://www.w3.org/1999/xlink" preserveAspectRatio="xMidYMid" width="50" height="50.03" viewBox="0 0 50 50.03">
  <defs>
    <style>
      .cls-1 {
        fill: #000;
        fill-rule: evenodd;
      }
    </style>
  </defs>
  <path d="M49.076,44.052 L34.360,49.902 C34.359,49.902 34.359,49.902 34.358,49.902 C34.011,50.030 33.705,50.065 33.335,49.945 C33.332,49.944 33.329,49.943 33.326,49.942 L16.255,44.250 L2.006,49.914 C1.052,50.293 -0.000,49.593 -0.000,48.552 L-0.000,19.049 C-0.000,18.449 0.366,17.909 0.924,17.688 L15.640,11.838 C15.641,11.838 15.641,11.838 15.642,11.837 C15.988,11.710 16.293,11.674 16.664,11.795 C17.379,12.033 21.523,13.415 24.393,14.372 C23.829,13.087 23.535,11.695 23.535,10.257 C23.535,4.601 28.135,0.000 33.789,0.000 C39.443,0.000 44.043,4.601 44.043,10.257 C44.043,11.416 43.851,12.544 43.483,13.611 L47.996,11.825 C48.957,11.445 50.000,12.156 50.000,13.188 L50.000,42.690 C50.000,43.291 49.634,43.831 49.076,44.052 ZM14.746,15.347 L2.930,20.044 L2.930,46.393 L14.746,41.696 L14.746,15.347 ZM17.676,15.221 L17.676,41.634 L32.324,46.519 L32.324,25.399 L27.032,18.341 L17.676,15.221 ZM33.789,2.931 C29.750,2.931 26.465,6.217 26.465,10.257 C26.465,11.856 26.970,13.374 27.925,14.649 L33.789,22.469 L39.652,14.649 C40.608,13.374 41.113,11.856 41.113,10.257 C41.113,6.217 37.827,2.931 33.789,2.931 ZM47.070,15.343 L40.991,17.748 L35.254,25.399 L35.254,46.393 L47.070,41.696 L47.070,15.343 ZM33.789,14.653 C31.366,14.653 29.394,12.681 29.394,10.257 C29.394,7.833 31.366,5.861 33.789,5.861 C36.212,5.861 38.183,7.833 38.183,10.257 C38.183,12.681 36.212,14.653 33.789,14.653 ZM33.789,8.792 C32.981,8.792 32.324,9.449 32.324,10.257 C32.324,11.065 32.981,11.723 33.789,11.723 C34.597,11.723 35.254,11.065 35.254,10.257 C35.254,9.449 34.597,8.792 33.789,8.792 Z" class="cls-1"/>
</svg>
