<svg xmlns="http://www.w3.org/2000/svg" xmlns:xlink="http://www.w3.org/1999/xlink" preserveAspectRatio="xMidYMid" width="15.909" height="16.13" viewBox="0 0 15.909 16.13">
  <defs>
    <style>
      .cls-1 {
        fill: #fff;
        fill-rule: evenodd;
      }
    </style>
  </defs>
  <path d="M15.558,12.778 L13.104,10.280 C12.615,9.785 11.805,9.799 11.300,10.314 L10.063,11.573 C9.985,11.528 9.905,11.483 9.819,11.434 C9.039,10.994 7.970,10.391 6.846,9.245 C5.718,8.097 5.124,7.008 4.691,6.213 C4.645,6.129 4.601,6.048 4.558,5.970 L5.387,5.127 L5.795,4.711 C6.302,4.196 6.316,3.372 5.828,2.875 L3.374,0.377 C2.887,-0.120 2.077,-0.105 1.570,0.411 L0.879,1.119 L0.898,1.138 C0.666,1.440 0.472,1.787 0.328,2.161 C0.195,2.518 0.112,2.858 0.074,3.199 C-0.250,5.933 0.977,8.433 4.309,11.824 C8.914,16.510 12.625,16.156 12.785,16.139 C13.134,16.097 13.468,16.012 13.808,15.878 C14.173,15.732 14.514,15.536 14.809,15.300 L14.824,15.314 L15.525,14.615 C16.031,14.100 16.045,13.276 15.558,12.778 Z" class="cls-1"/>
</svg>
