<svg xmlns="http://www.w3.org/2000/svg" xmlns:xlink="http://www.w3.org/1999/xlink" width="24" height="24" viewBox="0 0 24 24"><defs><path id="6oqaa" d="M1355.103 156.727c.794.8.79 1.778-.01 2.587-.54.544-1.114 1.064-1.623 1.633-.744.834-1.673 1.104-2.742 1.044-1.553-.085-2.981-.6-4.36-1.269-3.06-1.488-5.678-3.55-7.87-6.158-1.624-1.927-2.962-4.03-3.84-6.397-.43-1.144-.735-2.317-.64-3.56.06-.765.345-1.419.909-1.953.609-.58 1.183-1.184 1.783-1.773.779-.77 1.758-.77 2.542-.005.484.475.959.959 1.438 1.438.464.47.929.929 1.393 1.398.82.825.82 1.784.005 2.602-.584.59-1.163 1.18-1.758 1.754-.154.154-.17.28-.09.469.395.939.96 1.773 1.594 2.552 1.278 1.568 2.722 2.962 4.444 4.045.37.23.78.4 1.164.61.195.11.33.074.49-.09.584-.6 1.178-1.189 1.773-1.778.779-.775 1.757-.775 2.542 0 .953.948 1.907 1.897 2.856 2.851zm-5.588-10.268a6.353 6.353 0 0 0-3.636-1.812l.26-1.853a8.192 8.192 0 0 1 4.694 2.342 8.238 8.238 0 0 1 2.302 4.444l-1.842.315a6.355 6.355 0 0 0-1.778-3.436zm8.485 2.802l-1.843.315a11.773 11.773 0 0 0-3.301-6.368 11.78 11.78 0 0 0-6.732-3.356l.26-1.852a13.588 13.588 0 0 1 7.79 3.885 13.688 13.688 0 0 1 3.826 7.376z"/></defs><g><g transform="translate(-1334 -138)"><use xlink:href="#6oqaa"/></g></g></svg>