<svg xmlns="http://www.w3.org/2000/svg" xmlns:xlink="http://www.w3.org/1999/xlink" width="45" height="40" viewBox="0 0 45 40"><defs><path id="aa5da" d="M1290.576 991c0 11.028-8.877 20-19.788 20S1251 1002.028 1251 991s8.877-20 19.788-20c4.321 0 8.426 1.382 11.87 3.998.53.403.638 1.165.239 1.702a1.194 1.194 0 0 1-1.684.241 17.102 17.102 0 0 0-10.425-3.51c-9.585 0-17.383 7.88-17.383 17.569 0 9.688 7.798 17.57 17.383 17.57 9.585 0 17.383-7.882 17.383-17.57 0-.423-.015-.847-.045-1.26a1.211 1.211 0 0 1 1.113-1.3 1.207 1.207 0 0 1 1.286 1.124c.033.472.05.955.05 1.436zm4.051-10.55l-21.759 21.993a3.082 3.082 0 0 1-2.198.919 3.082 3.082 0 0 1-2.197-.92l-10.577-10.69a4.782 4.782 0 0 1 0-6.704 4.66 4.66 0 0 1 6.633 0l6.141 6.208 17.324-17.51a4.661 4.661 0 0 1 6.633 0 4.783 4.783 0 0 1 0 6.704zm-1.7-4.985a2.27 2.27 0 0 0-3.232 0l-17.5 17.687a2.13 2.13 0 0 1-1.524.639 2.13 2.13 0 0 1-1.524-.638l-6.318-6.386a2.265 2.265 0 0 0-1.616-.675c-.586 0-1.171.225-1.617.675a2.33 2.33 0 0 0 0 3.267l10.577 10.69c.274.278.72.278.995 0l21.76-21.992a2.33 2.33 0 0 0 0-3.267z"/></defs><g><g transform="translate(-1251 -971)"><use xlink:href="#aa5da"/></g></g></svg>