<svg xmlns="http://www.w3.org/2000/svg" xmlns:xlink="http://www.w3.org/1999/xlink" width="28" height="30" viewBox="0 0 28 30"><defs><path id="thkza" d="M677.738 1435.677c.606 1.274.126 2.794-1.093 3.458l-2.19 1.194a.878.878 0 0 0-.443.629l-.429 2.51c-.238 1.397-1.495 2.336-2.861 2.137l-2.454-.357a.841.841 0 0 0-.719.24l-1.78 1.772a2.5 2.5 0 0 1-1.77.74 2.5 2.5 0 0 1-1.768-.74l-1.78-1.772a.84.84 0 0 0-.72-.24l-2.453.357a2.539 2.539 0 0 1-.365.026c-1.219 0-2.28-.892-2.497-2.163l-.428-2.51a.877.877 0 0 0-.444-.629l-2.19-1.194c-1.218-.665-1.698-2.184-1.092-3.458l1.088-2.29a.901.901 0 0 0 0-.776l-1.088-2.289c-.606-1.275-.126-2.794 1.093-3.459l2.189-1.194a.878.878 0 0 0 .444-.628l.428-2.51c.239-1.397 1.495-2.336 2.862-2.137l2.453.356a.84.84 0 0 0 .72-.24l1.78-1.771a2.484 2.484 0 0 1 3.537 0l1.781 1.771c.193.191.454.279.72.24l2.453-.356c1.366-.2 2.623.74 2.861 2.137l.429 2.51c.046.27.208.5.444.628l2.189 1.194c1.219.665 1.699 2.184 1.093 3.459l-1.088 2.289a.901.901 0 0 0 0 .777zm-1.512.76l-1.088-2.29a2.664 2.664 0 0 1 0-2.296l1.088-2.29a.893.893 0 0 0-.37-1.17l-2.189-1.193a2.594 2.594 0 0 1-1.313-1.859l-.428-2.51a.86.86 0 0 0-.968-.722l-2.454.356a2.484 2.484 0 0 1-2.125-.71l-1.78-1.77a.84.84 0 0 0-1.198 0l-1.78 1.77a2.484 2.484 0 0 1-2.125.71l-2.454-.356a.86.86 0 0 0-.968.723l-.428 2.51a2.595 2.595 0 0 1-1.313 1.858l-2.19 1.194a.893.893 0 0 0-.37 1.17l1.089 2.289c.347.73.347 1.567 0 2.296l-1.088 2.29a.893.893 0 0 0 .37 1.17l2.189 1.194a2.595 2.595 0 0 1 1.313 1.858l.428 2.51a.86.86 0 0 0 .968.723l2.454-.357a2.489 2.489 0 0 1 2.125.71l1.78 1.771a.84.84 0 0 0 1.197 0l1.781-1.771a2.484 2.484 0 0 1 2.125-.71l2.454.357a.86.86 0 0 0 .968-.724l.428-2.509c.136-.8.615-1.477 1.313-1.858l2.19-1.194a.893.893 0 0 0 .369-1.17zm-6.078-8.536l-11.107 11.42a.826.826 0 0 1-1.19 0 .882.882 0 0 1 0-1.224l11.107-11.42a.825.825 0 0 1 1.19 0 .882.882 0 0 1 0 1.224zm-6.429.484c0 1.75-1.384 3.172-3.085 3.172s-3.086-1.423-3.086-3.172c0-1.75 1.385-3.172 3.086-3.172 1.701 0 3.085 1.423 3.085 3.172zm-1.683 0c0-.795-.629-1.442-1.402-1.442-.773 0-1.403.647-1.403 1.442 0 .795.63 1.442 1.403 1.442s1.402-.647 1.402-1.442zm8.415 9.228c0 1.75-1.384 3.173-3.085 3.173-1.702 0-3.086-1.423-3.086-3.173 0-1.749 1.384-3.172 3.086-3.172 1.701 0 3.085 1.423 3.085 3.172zm-1.683 0c0-.795-.629-1.441-1.402-1.441-.774 0-1.403.646-1.403 1.441 0 .796.63 1.442 1.403 1.442s1.402-.646 1.402-1.442z"/></defs><g><g transform="translate(-650 -1418)"><use fill="#54657e" xlink:href="#thkza"/></g></g></svg>