<svg xmlns="http://www.w3.org/2000/svg" xmlns:xlink="http://www.w3.org/1999/xlink" width="62" height="80" viewBox="0 0 62 80"><defs><path id="vemya" d="M1081.987 936.608a1.303 1.303 0 0 1-1.733.557c-8.007-3.957-17.652-2.444-24 3.766-7.378 7.217-8.118 18.723-1.72 26.764.438.55.337 1.342-.226 1.77-.235.18-.514.266-.791.266-.384 0-.765-.167-1.019-.486-7.195-9.044-6.365-21.983 1.931-30.098 7.139-6.983 17.985-8.684 26.988-4.234.636.314.891 1.073.57 1.695zm5.4 34.775c-4.517 4.419-10.497 6.672-16.5 6.672-5.022 0-10.06-1.577-14.27-4.783a1.243 1.243 0 0 1-.227-1.77 1.31 1.31 0 0 1 1.81-.221c8.221 6.257 19.984 5.535 27.363-1.682 6.347-6.208 7.895-15.64 3.852-23.471a1.249 1.249 0 0 1 .57-1.695 1.304 1.304 0 0 1 1.733.557c4.546 8.806 2.806 19.413-4.33 26.393zm.886-29.417c-.246.212-.55.316-.854.316a1.3 1.3 0 0 1-.967-.426 20.92 20.92 0 0 0-1.835-1.795 1.242 1.242 0 0 1-.112-1.78 1.31 1.31 0 0 1 1.82-.11 23.377 23.377 0 0 1 2.06 2.014c.472.522.421 1.32-.112 1.78zm11.384 18.283c-.224.359-.31.785-.243 1.2l.506 3.144c.257 1.602-.415 3.19-1.756 4.144l-2.63 1.871a1.774 1.774 0 0 0-.697 1.017l-.766 3.097c-.39 1.572-1.63 2.786-3.237 3.166l-1.272.3 8.95 19.529c.19.415.137.897-.138 1.264-.275.366-.731.559-1.192.505l-7.198-.842-4.146 5.816a1.3 1.3 0 0 1-1.18.534 1.289 1.289 0 0 1-1.056-.74l-9.147-19.959-1.2.715a4.463 4.463 0 0 1-4.574 0l-1.158-.69-9.135 19.934a1.29 1.29 0 0 1-1.178.746 1.3 1.3 0 0 1-1.058-.54l-4.146-5.816-7.198.842a1.302 1.302 0 0 1-1.192-.506 1.239 1.239 0 0 1-.138-1.263l8.946-19.517-1.322-.314c-1.608-.38-2.848-1.593-3.237-3.166l-.766-3.096a1.776 1.776 0 0 0-.696-1.017l-2.63-1.871c-1.34-.954-2.014-2.542-1.756-4.144l.506-3.144c.067-.414-.02-.84-.243-1.2l-1.697-2.721a4.203 4.203 0 0 1 0-4.475l1.697-2.722c.224-.359.31-.785.243-1.2l-.506-3.144c-.257-1.602.416-3.19 1.756-4.144l2.63-1.871c.349-.247.596-.609.697-1.017l.766-3.097c.39-1.572 1.63-2.786 3.237-3.166l3.165-.749c.419-.099.788-.34 1.04-.68l1.914-2.573a4.42 4.42 0 0 1 4.236-1.718l3.214.495c.425.065.86-.02 1.226-.238l2.783-1.66a4.46 4.46 0 0 1 4.575 0l2.783 1.66c.367.22.803.303 1.226.239l3.215-.495a4.42 4.42 0 0 1 4.236 1.717l1.914 2.573c.252.34.622.582 1.04.681l3.165.75c1.608.38 2.848 1.593 3.237 3.166l.766 3.096c.101.409.348.77.696 1.017l2.63 1.871c1.34.955 2.014 2.542 1.756 4.144l-.506 3.144c-.067.414.02.84.243 1.199l1.697 2.722c.86 1.38.86 3.094 0 4.475zm-34.41 22.867a1.838 1.838 0 0 0-.576-.004l-3.215.495a4.514 4.514 0 0 1-1.288.012l-4.275 9.326a1.292 1.292 0 0 1-1.177.746c-.177 0-.356-.036-.527-.11a1.25 1.25 0 0 1-.65-1.668l4.29-9.36a4.38 4.38 0 0 1-.609-.663l-1.913-2.574a1.775 1.775 0 0 0-.393-.383l-8.15 17.783 5.704-.667a1.3 1.3 0 0 1 1.211.53l3.286 4.61zm21.816-4.212a1.798 1.798 0 0 0-.435.413l-1.913 2.573a4.35 4.35 0 0 1-.57.628l4.305 9.395c.292.636.001 1.382-.649 1.668-.171.075-.35.11-.527.11-.492 0-.963-.277-1.177-.746l-4.278-9.334a4.51 4.51 0 0 1-1.34-.004l-3.214-.494a1.836 1.836 0 0 0-.526-.004l8.286 18.08 3.286-4.61a1.3 1.3 0 0 1 1.21-.53l5.705.667zm12.089-24.538l-1.697-2.722a4.225 4.225 0 0 1-.59-2.906l.507-3.144a1.749 1.749 0 0 0-.725-1.71l-2.63-1.872a4.298 4.298 0 0 1-1.686-2.465l-.766-3.096a1.787 1.787 0 0 0-1.336-1.306l-3.166-.75a4.403 4.403 0 0 1-2.52-1.649l-1.913-2.573a1.826 1.826 0 0 0-1.749-.709l-3.215.495a4.477 4.477 0 0 1-2.97-.576l-2.783-1.66a1.843 1.843 0 0 0-1.889 0l-2.783 1.66a4.477 4.477 0 0 1-2.97.575l-3.214-.494a1.825 1.825 0 0 0-1.75.71l-1.912 2.571a4.406 4.406 0 0 1-2.52 1.65l-3.165.749a1.788 1.788 0 0 0-1.337 1.307l-.766 3.096a4.3 4.3 0 0 1-1.685 2.465l-2.631 1.87a1.75 1.75 0 0 0-.725 1.711l.506 3.145a4.225 4.225 0 0 1-.59 2.905l-1.697 2.723a1.734 1.734 0 0 0 0 1.847l1.697 2.722c.542.869.751 1.9.59 2.906l-.506 3.143a1.75 1.75 0 0 0 .724 1.71l2.63 1.872a4.299 4.299 0 0 1 1.686 2.465l.766 3.096c.16.65.673 1.15 1.336 1.307l3.166.75a4.407 4.407 0 0 1 2.52 1.649l1.913 2.573a1.825 1.825 0 0 0 1.749.709l3.215-.495a4.469 4.469 0 0 1 2.97.576l2.783 1.66a1.842 1.842 0 0 0 1.889 0l2.783-1.66a4.48 4.48 0 0 1 2.97-.576l3.214.495a1.824 1.824 0 0 0 1.749-.709l1.913-2.573a4.402 4.402 0 0 1 2.52-1.649l3.165-.75a1.787 1.787 0 0 0 1.337-1.306l.766-3.096a4.3 4.3 0 0 1 1.686-2.465l2.63-1.871a1.75 1.75 0 0 0 .725-1.71l-.506-3.145a4.226 4.226 0 0 1 .59-2.905l1.697-2.723a1.734 1.734 0 0 0 0-1.847zm-13.723-.624l-5.739 5.19 1.523 7.5c.18.882-.171 1.76-.916 2.288a2.35 2.35 0 0 1-2.508.145l-6.82-3.734-6.821 3.734a2.354 2.354 0 0 1-2.508-.145 2.234 2.234 0 0 1-.917-2.289l1.523-7.498-5.738-5.192a2.224 2.224 0 0 1-.634-2.377 2.296 2.296 0 0 1 1.942-1.56l7.762-.9 3.274-6.942a2.312 2.312 0 0 1 2.116-1.325c.92 0 1.732.507 2.117 1.325l3.274 6.942 7.762.9a2.295 2.295 0 0 1 1.942 1.56 2.225 2.225 0 0 1-.634 2.378zm-2.148-1.494l-7.943-.922a1.287 1.287 0 0 1-1.02-.724l-3.35-7.104-3.35 7.104a1.288 1.288 0 0 1-1.02.724l-7.943.922 5.873 5.312c.33.298.477.741.39 1.172l-1.56 7.673 6.98-3.821a1.31 1.31 0 0 1 1.26 0l6.98 3.821-1.559-7.673c-.087-.43.06-.874.39-1.172z"/></defs><g><g transform="translate(-1040 -925)"><use xlink:href="#vemya"/></g></g></svg>