<svg xmlns="http://www.w3.org/2000/svg" xmlns:xlink="http://www.w3.org/1999/xlink" width="42" height="40" viewBox="0 0 42 40"><defs><path id="4dn9a" d="M1292 1000.649v2.823c-.01 2.17-1.744 3.918-3.873 3.928h-.944a4.871 4.871 0 0 1-3.371 3.419c-2.582.733-5.26-.801-5.973-3.42h-14.16a4.871 4.871 0 0 1-3.372 3.42c-2.581.733-5.26-.801-5.972-3.42h-.463c-2.128-.019-3.862-1.768-3.872-3.927v-2.461c.01-1.759 1.166-3.302 2.842-3.762l6.358-1.758 3.785-5.031a4.823 4.823 0 0 1 3.825-1.915h6.945a13.204 13.204 0 0 1-1.117-5.402v-6.546a.948.948 0 0 1 .481-.86l8.294-4.61a.926.926 0 0 1 .915-.01l8.564 4.62a1 1 0 0 1 .53.86v6.418c0 4.465-2.254 8.607-5.973 10.991l.954 1.563 3.333 1.534a3.928 3.928 0 0 1 2.264 3.546zm-17.436-23.476v5.96c0 4.406 2.563 8.382 6.531 10.15l.752.342.925-.4h.019c4.055-1.73 6.695-5.745 6.704-10.21v-5.832l-7.58-4.103zm-12.638 28.878c0-1.631-1.3-2.96-2.92-2.96-1.608 0-2.918 1.32-2.918 2.96 0 1.632 1.3 2.96 2.919 2.96 1.609-.01 2.919-1.328 2.919-2.96zm23.504 0c0-1.631-1.3-2.96-2.919-2.96-1.608 0-2.918 1.329-2.918 2.96 0 1.632 1.3 2.96 2.918 2.96a2.938 2.938 0 0 0 2.92-2.96zm4.653-2.589v-2.813a1.97 1.97 0 0 0-1.137-1.768l-3.603-1.651a.904.904 0 0 1-.414-.371l-1.185-1.925c-.057.03-.125.059-.192.088l-1.3.567a.963.963 0 0 1-.771 0l-1.156-.508a13.088 13.088 0 0 1-5.472-4.592h-8.034a2.88 2.88 0 0 0-2.292 1.143l-3.988 5.295a.999.999 0 0 1-.52.352l-6.667 1.846a1.96 1.96 0 0 0-1.425 1.876v2.461c.01 1.085.876 1.964 1.945 1.974h.328c.28-2.208 2.004-3.957 4.18-4.24 2.66-.352 5.087 1.544 5.434 4.24h13.89c.28-2.208 2.004-3.957 4.181-4.24 2.659-.352 5.086 1.544 5.433 4.24h.81c1.069-.01 1.936-.889 1.945-1.974zm-3.574-21.218l-5.23 4.318c-.01.01-.02.01-.03.02a.125.125 0 0 0-.038.029c-.02 0-.029.02-.039.02a.07.07 0 0 0-.038.019c-.01.01-.029.01-.039.02-.01.01-.029.01-.038.019-.01.01-.03.01-.039.02-.019 0-.029.01-.038.01-.02.009-.03.018-.048.018-.01 0-.02.01-.03.01-.019 0-.038.01-.057.01-.01.01-.02.01-.029.01-.02 0-.048.01-.067.01H1280.537c-.01 0-.03-.01-.039-.01-.02 0-.038-.01-.058-.01-.01 0-.029-.01-.038-.01-.02-.01-.039-.01-.058-.02-.01-.009-.029-.009-.039-.019a.132.132 0 0 1-.057-.02.071.071 0 0 1-.039-.019c-.02-.01-.029-.02-.048-.03-.01-.009-.02-.019-.039-.028-.019-.01-.038-.02-.048-.03-.01-.01-.029-.02-.038-.03l-.039-.038c-.019-.01-.029-.03-.038-.04a.136.136 0 0 1-.03-.038l-2.244-2.667-.01-.01a.987.987 0 0 1 .116-1.378.954.954 0 0 1 1.358.118l1.638 1.944 4.508-3.722.01-.01a.965.965 0 0 1 1.358.156.997.997 0 0 1-.154 1.378z"/></defs><g><g transform="translate(-1250 -971)"><use xlink:href="#4dn9a"/></g></g></svg>