<svg xmlns="http://www.w3.org/2000/svg" xmlns:xlink="http://www.w3.org/1999/xlink" width="16" height="16" viewBox="0 0 16 16"><defs><path id="8o4qa" d="M1448.956 331h-4.87a1.044 1.044 0 0 1-1.043-1.044v-4.87c0-.576.468-1.043 1.044-1.043h4.87c.576 0 1.043.467 1.043 1.043v4.87c0 .577-.467 1.044-1.044 1.044zm0-9.044h-4.87a1.043 1.043 0 0 1-1.043-1.043v-4.87c0-.576.468-1.043 1.044-1.043h4.87c.576 0 1.043.467 1.043 1.043v4.87c0 .576-.467 1.043-1.044 1.043zm-9.043 9.044h-4.87a1.044 1.044 0 0 1-1.043-1.044v-4.87c0-.576.467-1.043 1.043-1.043h4.87c.576 0 1.043.467 1.043 1.043v4.87c0 .577-.467 1.044-1.043 1.044zm0-9.044h-4.87a1.043 1.043 0 0 1-1.043-1.043v-4.87c0-.576.467-1.043 1.043-1.043h4.87c.576 0 1.043.467 1.043 1.043v4.87c0 .576-.467 1.043-1.043 1.043z"/></defs><g><g transform="translate(-1434 -315)"><use xlink:href="#8o4qa"/></g></g></svg>