<svg xmlns="http://www.w3.org/2000/svg" xmlns:xlink="http://www.w3.org/1999/xlink" width="40" height="40" viewBox="0 0 40 40"><defs><path id="gkfpa" d="M681.557 992.961a.54.54 0 0 0-.152.474l1.495 8.849a2.68 2.68 0 0 1-1.05 2.619 2.601 2.601 0 0 1-1.547.514c-.42 0-.84-.103-1.23-.31l-7.828-4.178a.52.52 0 0 0-.492 0l-7.828 4.178a2.59 2.59 0 0 1-2.778-.204 2.68 2.68 0 0 1-1.05-2.62l1.496-8.848a.54.54 0 0 0-.152-.474l-6.333-6.267a2.689 2.689 0 0 1-.668-2.745 2.633 2.633 0 0 1 2.13-1.822l8.752-1.29a.528.528 0 0 0 .397-.294l3.914-8.05A2.618 2.618 0 0 1 671 971c1.011 0 1.918.572 2.365 1.492l3.915 8.051a.528.528 0 0 0 .397.293l8.752 1.29c1.001.149 1.817.847 2.13 1.823a2.69 2.69 0 0 1-.668 2.745zm-1.473-1.534l6.333-6.266a.527.527 0 0 0 .134-.55.517.517 0 0 0-.426-.364l-8.753-1.29a2.64 2.64 0 0 1-1.986-1.466l-3.914-8.05a.513.513 0 0 0-.473-.299.513.513 0 0 0-.473.298l-3.914 8.051a2.64 2.64 0 0 1-1.986 1.465l-8.753 1.291a.516.516 0 0 0-.425.365.528.528 0 0 0 .133.549l6.333 6.266c.622.616.906 1.502.759 2.37l-1.495 8.85c-.05.295.13.464.21.523.08.059.293.18.555.04l7.829-4.177a2.607 2.607 0 0 1 2.455 0l7.828 4.177c.262.14.476.019.555-.04a.525.525 0 0 0 .21-.524l-1.495-8.849a2.702 2.702 0 0 1 .759-2.37zm3.475-17.44l-1.12 1.566a1.048 1.048 0 0 1-1.474.237 1.082 1.082 0 0 1-.233-1.496l1.12-1.565a1.045 1.045 0 0 1 1.474-.237c.471.347.576 1.017.233 1.496zm-22.531 1.796a1.048 1.048 0 0 1-1.474-.237l-1.12-1.564a1.082 1.082 0 0 1 .233-1.496 1.046 1.046 0 0 1 1.474.236l1.12 1.565a1.081 1.081 0 0 1-.233 1.496zm-6.836 20.598l-1.812.597a1.042 1.042 0 0 1-.326.053c-.445 0-.859-.288-1.003-.74a1.075 1.075 0 0 1 .677-1.35l1.812-.598a1.052 1.052 0 0 1 1.33.688 1.075 1.075 0 0 1-.678 1.35zm17.862 11.613v1.935c0 .591-.472 1.07-1.055 1.07s-1.055-.479-1.055-1.07v-1.935c0-.591.472-1.07 1.055-1.07s1.055.479 1.055 1.07zm18.893-11.702a1.047 1.047 0 0 1-1.33.688l-1.812-.598a1.075 1.075 0 0 1-.677-1.35c.18-.562.775-.87 1.33-.688l1.811.598c.555.183.858.788.678 1.35z"/></defs><g><g transform="translate(-651 -971)"><use xlink:href="#gkfpa"/></g></g></svg>