<svg xmlns="http://www.w3.org/2000/svg" xmlns:xlink="http://www.w3.org/1999/xlink" width="80" height="74" viewBox="0 0 80 74"><defs><path id="9sqva" d="M496.066 935.863c0 .686-.57 1.242-1.273 1.242-.704 0-1.281-.556-1.281-1.242 0-.686.563-1.241 1.267-1.241h.014c.703 0 1.273.555 1.273 1.241zm-16.319 54.3v7.946c0 2.145-1.79 3.89-3.991 3.89H434.99c-2.2 0-3.991-1.745-3.991-3.89v-7.946c0-2.112 1.292-4.001 3.293-4.814l12.124-4.924c.54-.219.889-.729.889-1.299v-2.506l-2.267-1.228c-1.943-1.051-3.222-2.967-3.424-5.124l-.004-.053h-1.184c-2.201 0-3.992-1.746-3.992-3.89v-2.392c-.357-.842-1.358-3.533-1.358-7.247 0-5.132 2.062-9.974 5.807-13.634a20.01 20.01 0 0 1 4.811-3.472c.062-4.203 4.379-7.607 9.679-7.607 5.3 0 9.617 3.404 9.678 7.607a20.01 20.01 0 0 1 4.812 3.472c3.744 3.66 5.807 8.502 5.807 13.634 0 3.714-1.002 6.406-1.359 7.247v2.391c0 2.145-1.79 3.89-3.992 3.89h-1.183l-.005.054c-.201 2.157-1.481 4.073-3.423 5.124l-2.267 1.228v2.506c0 .57.348 1.08.888 1.3l12.125 4.923c2 .813 3.292 2.702 3.292 4.814zm-7.983-26.488c0-.776-.647-1.407-1.444-1.407h-.442l-.51 5.463h.952c.797 0 1.444-.63 1.444-1.407zm-23.31-25.27a21.37 21.37 0 0 1 6.92-1.135c2.405 0 4.738.39 6.92 1.136-.776-2.266-3.584-3.95-6.92-3.95-3.337 0-6.145 1.684-6.92 3.95zm-7.075 29.326l-.51-5.463h-.442c-.796 0-1.444.631-1.444 1.407v2.649c0 .776.648 1.407 1.444 1.407zm11.974 9.322a4.23 4.23 0 0 0 4.041 0l7.077-3.832a4.12 4.12 0 0 0 1.282-1.08c-2.165 1.051-5.502 2.047-10.38 2.047-.703 0-1.273-.556-1.273-1.242 0-.686.57-1.242 1.273-1.242 7.02 0 10.319-2.238 11.359-3.135l.907-9.725-2.296-2.237a1.219 1.219 0 0 1 0-1.756 1.297 1.297 0 0 1 1.802 0l2.717 2.649c.267.26.403.623.368.99l-.12 1.295h.21c.892 0 1.717.287 2.382.77.231-1.045.42-2.361.42-3.87 0-4.469-1.797-8.688-5.062-11.879-3.334-3.258-7.84-5.053-12.687-5.053-4.847 0-9.352 1.795-12.686 5.053-3.265 3.191-5.063 7.41-5.063 11.88 0 1.508.19 2.824.42 3.87a4.04 4.04 0 0 1 2.383-.77h.21l-.12-1.296c-.064-.682.453-1.286 1.153-1.348.066-.006.132-.006.196-.002.21.012 15.567.8 23.855-8.83a1.297 1.297 0 0 1 1.794-.154c.54.44.61 1.224.158 1.749-3.797 4.413-9.498 7.491-16.485 8.902-3.417.69-6.339.829-8.005.839l.97 10.397a4.048 4.048 0 0 0 2.123 3.178zm-7.292 6.207c2.39 2.704 4.699 4.048 6.263 4.705 1.73.726 2.928.786 3.05.79.12-.004 1.319-.064 3.049-.79 1.564-.658 3.874-2.001 6.263-4.705l-1.336-.542c-1.492-.606-2.456-2.016-2.456-3.592V978l-2.262 1.225a6.833 6.833 0 0 1-3.258.829 6.837 6.837 0 0 1-3.259-.829L449.854 978v1.127c0 1.576-.965 2.985-2.457 3.592zm-6.908 11.461c0-.833-.384-1.611-1.052-2.132l-4.368-3.406c-.12.306-.185.638-.185.98v7.946c0 .776.647 1.408 1.443 1.408h4.162zm31.901-4.072l4.05-3.158-7.956-3.23c-4.198 5.059-8.44 6.452-10.5 6.833v4.201c0 .686-.571 1.242-1.275 1.242-.703 0-1.274-.556-1.274-1.242v-4.2c-2.06-.382-6.302-1.775-10.5-6.835l-7.957 3.231 4.05 3.158a5.14 5.14 0 0 1 2.008 4.072v4.795h27.346v-4.795c0-1.592.732-3.077 2.008-4.072zm6.145 7.46v-7.946c0-.342-.065-.674-.186-.98l-4.367 3.405a2.692 2.692 0 0 0-1.052 2.133v4.796h4.162c.796 0 1.443-.632 1.443-1.408zm-23.99-33.315a1.3 1.3 0 0 1-.552.123c-.474 0-.93-.259-1.149-.703-.149-.301-.706-.621-1.445-.621-.739 0-1.296.32-1.445.621a1.289 1.289 0 0 1-1.7.58 1.228 1.228 0 0 1-.595-1.657c.608-1.232 2.077-2.028 3.74-2.028 1.664 0 3.132.796 3.74 2.028.306.617.04 1.36-.594 1.657zm10.62 0a1.3 1.3 0 0 1-.551.123c-.474 0-.93-.259-1.149-.703-.149-.301-.706-.621-1.445-.621-.739 0-1.296.32-1.445.621a1.29 1.29 0 0 1-1.7.58 1.228 1.228 0 0 1-.596-1.657c.61-1.232 2.077-2.028 3.74-2.028 1.665 0 3.133.796 3.741 2.028.306.617.04 1.36-.594 1.657zM511 943.81c0 8.717-7.276 15.81-16.22 15.81-1.441 0-2.868-.186-4.251-.551-4.243 2.781-9.027 3.18-9.237 3.195a1.275 1.275 0 0 1-1.277-.763 1.22 1.22 0 0 1 .35-1.418c.02-.017 1.926-1.633 3.684-4.437-3.503-3.006-5.49-7.262-5.49-11.837 0-8.717 7.277-15.81 16.221-15.81 8.944 0 16.22 7.093 16.22 15.81zm-2.547 0c0-7.349-6.134-13.327-13.673-13.327-7.54 0-13.673 5.978-13.673 13.326 0 4.162 1.954 8.012 5.36 10.563.499.373.644 1.044.342 1.58a24.619 24.619 0 0 1-2.03 3.052c1.48-.46 3.2-1.181 4.77-2.297a1.3 1.3 0 0 1 1.132-.182c1.324.406 2.704.611 4.099.611 7.54 0 13.673-5.978 13.673-13.327zm-11.04 7.946c0 .686-.57 1.241-1.274 1.241h-2.718c-.704 0-1.274-.555-1.274-1.241s.57-1.242 1.274-1.242h.085v-8.112h-.085c-.704 0-1.274-.556-1.274-1.241 0-.686.57-1.242 1.274-1.242h2.718c.703 0 1.274.556 1.274 1.242 0 .685-.57 1.241-1.274 1.241h-.085v8.112h.085c.703 0 1.274.556 1.274 1.242z"/></defs><g><g transform="translate(-431 -928)"><use xlink:href="#9sqva"/></g></g></svg>