<svg xmlns="http://www.w3.org/2000/svg" xmlns:xlink="http://www.w3.org/1999/xlink" width="80" height="80" viewBox="0 0 80 80"><defs><path id="jc4ua" d="M809.387 934.31c-.702.703-2.715 2.281-5.458 4.168a8.21 8.21 0 0 1 .164 1.636v18.98c0 2.561-.997 4.97-2.809 6.781l-37.935 37.937a4.05 4.05 0 0 1-2.872 1.188c-1.04 0-2.08-.396-2.871-1.188l-25.417-25.417a4.035 4.035 0 0 1-1.19-2.872c0-1.084.423-2.104 1.19-2.871l37.936-37.937a9.53 9.53 0 0 1 6.782-2.81h18.978a8.21 8.21 0 0 1 7.09 4.079c2.408-1.683 4.09-3.018 4.58-3.507.545-.546.848-1.27.852-2.039a2.815 2.815 0 0 0-.828-2.018 2.816 2.816 0 0 0-2.006-.828h-.012a2.887 2.887 0 0 0-2.04.853c-.261.262-.825.908-1.507 1.73a1.295 1.295 0 1 1-1.994-1.656c.436-.525 1.231-1.47 1.669-1.907a5.46 5.46 0 0 1 3.86-1.612 5.396 5.396 0 0 1 3.862 1.587A5.39 5.39 0 0 1 811 930.45a5.46 5.46 0 0 1-1.612 3.862zm-7.886 24.783v-18.978-.013c-1.402.91-2.92 1.851-4.502 2.772a5.446 5.446 0 0 1-1.412 5.237 5.426 5.426 0 0 1-3.85 1.592 5.426 5.426 0 0 1-3.849-1.592 5.45 5.45 0 0 1 0-7.699 5.45 5.45 0 0 1 7.874.184 104.873 104.873 0 0 0 5.063-3.151 5.62 5.62 0 0 0-4.94-2.947h-18.978c-1.87 0-3.627.728-4.95 2.05l-37.935 37.937c-.277.277-.43.646-.43 1.039 0 .392.153.76.43 1.038l25.417 25.418a1.471 1.471 0 0 0 2.077 0l37.936-37.938a6.954 6.954 0 0 0 2.05-4.949zm-10.345-15.989c.75-.377 1.495-.768 2.228-1.166a2.846 2.846 0 0 0-3.662.308 2.855 2.855 0 0 0 0 4.032 2.855 2.855 0 0 0 4.032 0c.564-.563.84-1.305.833-2.045-.75.407-1.507.805-2.266 1.187a1.296 1.296 0 0 1-1.165-2.315zm-20.242 9.592v27.372a1.296 1.296 0 0 1-2.592 0v-27.372a1.296 1.296 0 1 1 2.592 0zm-5.628 13.686a5.408 5.408 0 0 1-1.594 3.85 5.428 5.428 0 0 1-3.85 1.591 5.427 5.427 0 0 1-3.848-1.591 5.45 5.45 0 0 1 0-7.7 5.449 5.449 0 0 1 7.698.001 5.407 5.407 0 0 1 1.594 3.85zm-2.592 0c0-.762-.296-1.477-.835-2.016a2.843 2.843 0 0 0-2.016-.834c-.73 0-1.46.278-2.016.834a2.855 2.855 0 0 0 0 4.032 2.854 2.854 0 0 0 4.032 0 2.833 2.833 0 0 0 .835-2.016zm20.55 3.85a5.428 5.428 0 0 1-3.85 1.591 5.428 5.428 0 0 1-3.85-1.591 5.45 5.45 0 0 1 0-7.7 5.449 5.449 0 0 1 7.699 0 5.45 5.45 0 0 1 0 7.7zm-1.834-5.866a2.843 2.843 0 0 0-2.016-.834c-.73 0-1.46.278-2.016.834a2.855 2.855 0 0 0 0 4.032 2.854 2.854 0 0 0 4.032 0 2.855 2.855 0 0 0 0-4.032z"/></defs><g><g transform="translate(-731 -925)"><use xlink:href="#jc4ua"/></g></g></svg>