<svg xmlns="http://www.w3.org/2000/svg" xmlns:xlink="http://www.w3.org/1999/xlink" width="40" height="40" viewBox="0 0 40 40"><defs><path id="ockga" d="M373.667 1196.332v33.334a3.338 3.338 0 0 1-3.334 3.333h-16a3.338 3.338 0 0 1-3.333-3.333v-33.334a3.337 3.337 0 0 1 3.333-3.333h16a3.337 3.337 0 0 1 3.334 3.333zm-1.334 0a2 2 0 0 0-2-2h-16a2 2 0 0 0-2 2v33.334a2 2 0 0 0 2 2h16a2 2 0 0 0 2-2zm-2 .667v9.333a.667.667 0 0 1-.666.667H355a.667.667 0 0 1-.667-.667V1197c0-.368.299-.667.667-.667h14.667c.368 0 .666.299.666.667zm-1.333.667h-13.333v8H369zm-.961 25.037a7.993 7.993 0 0 1-11.304 0c-.019-.017-.041-.03-.059-.047-.018-.018-.03-.04-.048-.057a7.994 7.994 0 1 1 11.303-11.307c.019.017.04.03.059.048.019.018.03.04.048.059a7.993 7.993 0 0 1 0 11.304zm-2.877-11.361c.088-.087.183-.164.285-.233a6.66 6.66 0 0 0-9.004 9.004c.069-.102.147-.198.233-.285zm-6.6 10.37l8.485-8.484a.666.666 0 0 0 .01-.926l-.026-.029a.667.667 0 0 0-.926.012l-8.486 8.485a.666.666 0 0 0-.012.925l.03.03c.262.245.67.24.925-.012zm9.661-7.827a1.952 1.952 0 0 1-.232.285l-8.486 8.486a1.953 1.953 0 0 1-.286.233 6.66 6.66 0 0 0 9.005-9.004zM355 1226.999a1.333 1.333 0 1 1 0 2.666 1.333 1.333 0 0 1 0-2.666zm4.667 0a1.333 1.333 0 1 1 0 2.666 1.333 1.333 0 0 1 0-2.666zm4.666 0a1.333 1.333 0 1 1 0 2.666 1.333 1.333 0 0 1 0-2.666zm4.667 0a1.333 1.333 0 1 1 0 2.666 1.333 1.333 0 0 1 0-2.666zm-14.667-18.667h2v1.334h-2zm14 0h2v1.334h-2zm22.667-4v1.333h-1.333v16.667a.666.666 0 0 1-.667.667h-.667v4.666a2.667 2.667 0 0 1-2.666 2.667H375V1229h10.667c.736 0 1.333-.597 1.333-1.334V1223h-.667a.666.666 0 0 1-.666-.667v-16.667h-1.334v-1.333h1.334v-3.334c0-.07.011-.142.034-.21l.666-2a.666.666 0 0 1 .633-.456V1193h1.333v5.333c.287 0 .542.184.633.456l.667 2a.664.664 0 0 1 .034.21v3.334zm-2.667 1.333H387v16h1.333zm0-4.558l-.48-1.442h-.372l-.481 1.442v3.225h1.333zm-22 1.892h1.334v1.333h-1.334zm-2.666 0H365v1.333h-1.333zm-2.667 0h1.333v1.333H361zm22 1.333v1.333h-1.333v16.667a.666.666 0 0 1-.667.667h-.667v2.667a2 2 0 0 1-2 2H375v-1.334h3.333a.666.666 0 0 0 .667-.666v-2.667h-.667a.666.666 0 0 1-.666-.667v-16.667h-1.334v-1.333h1.334v-3.334c0-.07.011-.142.034-.21l.666-2a.666.666 0 0 1 .633-.456V1193h1.333v5.333c.287 0 .542.184.633.456l.667 2a.664.664 0 0 1 .034.21v3.334zm-2.667 1.333H379v16h1.333zm0-4.558l-.48-1.442h-.372l-.481 1.442v3.225h1.333zm-22 1.892h1.334v1.333h-1.334z"/></defs><g><g transform="translate(-351 -1193)"><use fill="#fff" xlink:href="#ockga"/></g></g></svg>