<svg xmlns="http://www.w3.org/2000/svg" xmlns:xlink="http://www.w3.org/1999/xlink" preserveAspectRatio="xMidYMid" width="16" height="16" viewBox="0 0 16 16">
  <defs>
    
  </defs>
  <path d="M8.000,-0.000 C3.582,-0.000 -0.000,3.582 -0.000,8.000 C-0.000,12.418 3.582,16.000 8.000,16.000 C12.418,16.000 16.000,12.418 16.000,8.000 C16.000,3.582 12.418,-0.000 8.000,-0.000 ZM11.458,9.735 L7.853,9.735 C7.842,9.735 7.831,9.732 7.820,9.731 C7.809,9.732 7.798,9.735 7.786,9.735 C7.481,9.735 7.233,9.487 7.233,9.181 L7.233,3.320 C7.233,3.014 7.588,2.767 7.893,2.767 C8.199,2.767 8.553,3.014 8.553,3.320 L8.553,8.415 L11.458,8.415 C11.764,8.415 12.011,8.769 12.011,9.075 C12.011,9.380 11.764,9.735 11.458,9.735 Z" class="cls-1"/>
</svg>
