<svg xmlns="http://www.w3.org/2000/svg" xmlns:xlink="http://www.w3.org/1999/xlink" width="40" height="46" viewBox="0 0 40 46"><defs><path id="gaoda" d="M990.759 1229.116a2.765 2.765 0 0 1-1.542 1.492l-11.658 4.517a12.868 12.868 0 0 1-9.604-.108l-5.635-2.377v.292a.76.76 0 0 1-.755.767h-6.037a.76.76 0 0 1-.755-.767H951v-1.533h3.773v-7.667H951v-1.533h3.773a.76.76 0 0 1 .755-.767h6.037a.76.76 0 0 1 .755.767h1.913a17.49 17.49 0 0 1 7.884 1.89c.53.269 1.115.409 1.707.41h5.854c1.459 0 2.641 1.201 2.641 2.683a2.668 2.668 0 0 1-.026.282l4.894-2.11a2.66 2.66 0 0 1 2.113-.005c.69.293 1.232.859 1.503 1.567.276.71.26 1.502-.044 2.2zm-29.948-6.15h-4.528v9.2h4.528zm28.584 4.513a1.257 1.257 0 0 0-.68-.714c-.3-.13-.64-.13-.94 0l-6.31 2.721a4.587 4.587 0 0 1-1.742.375c-.016 0-.03.004-.045.004h-9.056v-1.533h9.01c.1 0 .196-.02.295-.03.51-.12.872-.58.875-1.112a1.141 1.141 0 0 0-1.124-1.158h-5.854a5.271 5.271 0 0 1-2.381-.571 16 16 0 0 0-7.21-1.729h-1.913v7.247l6.206 2.622a11.379 11.379 0 0 0 8.492.092l11.658-4.515c.313-.122.565-.367.699-.68.14-.323.148-.69.02-1.019zm1.603-23.68v4.6a.76.76 0 0 1-.755.767h-2.628a12.96 12.96 0 0 1-1.513 3.722l1.855 1.885c.295.3.295.785 0 1.084l-3.202 3.253a.746.746 0 0 1-1.068 0l-1.855-1.886a12.536 12.536 0 0 1-3.664 1.538v2.67a.76.76 0 0 1-.754.767h-4.528a.76.76 0 0 1-.755-.767v-2.67a12.546 12.546 0 0 1-3.667-1.538l-1.856 1.886a.77.77 0 0 1-1.068 0l-3.202-3.253a.775.775 0 0 1 0-1.084l1.856-1.885a12.956 12.956 0 0 1-1.51-3.722h-2.628a.76.76 0 0 1-.755-.767v-4.6a.76.76 0 0 1 .755-.766h2.632c.308-1.314.817-2.57 1.51-3.722l-1.856-1.885a.775.775 0 0 1 0-1.084l3.202-3.253v-.001a.746.746 0 0 1 1.068 0l1.856 1.887a12.543 12.543 0 0 1 3.663-1.538v-2.67a.76.76 0 0 1 .755-.767h4.528a.76.76 0 0 1 .754.766v2.67c1.294.315 2.53.834 3.664 1.539l1.855-1.886a.77.77 0 0 1 1.068 0l3.202 3.253c.295.299.295.784 0 1.084l-1.855 1.885a12.956 12.956 0 0 1 1.513 3.722h2.628a.76.76 0 0 1 .755.766zm-1.51 3.832v-3.066h-2.483a.758.758 0 0 1-.741-.624 11.462 11.462 0 0 0-1.751-4.304.776.776 0 0 1 .09-.974l1.754-1.78-2.135-2.168-1.753 1.781a.746.746 0 0 1-.958.092 11.117 11.117 0 0 0-4.238-1.779.764.764 0 0 1-.614-.753v-2.523h-3.019v2.523a.764.764 0 0 1-.615.753c-1.518.29-2.961.896-4.238 1.779a.746.746 0 0 1-.958-.092l-1.751-1.781-2.135 2.169 1.754 1.78c.256.26.294.67.09.974a11.464 11.464 0 0 0-1.752 4.305.758.758 0 0 1-.74.623h-2.484v3.067h2.483c.363 0 .674.262.741.625a11.463 11.463 0 0 0 1.751 4.304.776.776 0 0 1-.09.974l-1.753 1.78 2.135 2.168 1.753-1.782a.746.746 0 0 1 .957-.09 11.117 11.117 0 0 0 4.239 1.778.763.763 0 0 1 .613.753v2.523h3.02v-2.523c0-.368.258-.684.614-.753a11.116 11.116 0 0 0 4.238-1.779.746.746 0 0 1 .958.091l1.752 1.782 2.135-2.17-1.754-1.781a.776.776 0 0 1-.09-.974 11.462 11.462 0 0 0 1.75-4.304.758.758 0 0 1 .742-.624zm-9.81-1.532c0 2.54-2.027 4.6-4.528 4.6-2.5-.002-4.526-2.06-4.528-4.6 0-2.54 2.027-4.6 4.528-4.6 2.5 0 4.528 2.06 4.528 4.6zm-1.51 0c0-1.693-1.351-3.066-3.018-3.066-1.667 0-3.019 1.373-3.019 3.066 0 1.694 1.352 3.067 3.019 3.067s3.018-1.373 3.018-3.067zm6.038 0c0 5.081-4.055 9.2-9.056 9.2-5-.005-9.051-4.12-9.056-9.2 0-5.08 4.054-9.2 9.056-9.2 5.001 0 9.056 4.12 9.056 9.2zm-1.51 0c0-4.234-3.378-7.666-7.546-7.666-4.166.005-7.542 3.434-7.547 7.666 0 4.234 3.379 7.667 7.547 7.667 4.168 0 7.547-3.433 7.547-7.667z"/></defs><g><g transform="translate(-951 -1190)"><use fill="#fff" xlink:href="#gaoda"/></g></g></svg>