<svg xmlns="http://www.w3.org/2000/svg" xmlns:xlink="http://www.w3.org/1999/xlink" width="80" height="40" viewBox="0 0 80 40"><defs><path id="llfaa" d="M1411 1169.166v19.668c0 5.605-4.563 10.165-10.171 10.165h-20.948c-5.609 0-10.171-4.56-10.171-10.165v-19.668c0-4.184-3.405-7.587-7.59-7.587h-20.95c-4.184 0-7.59 3.403-7.59 7.587v19.668c0 4.183 3.406 7.586 7.59 7.586h29.592a1.29 1.29 0 1 1 0 2.58h-29.591c-5.608 0-10.171-4.56-10.171-10.166v-19.668c0-5.606 4.563-10.166 10.17-10.166h20.95c5.607 0 10.17 4.56 10.17 10.166v19.667c0 4.184 3.405 7.587 7.59 7.587h20.949c4.185 0 7.59-3.403 7.59-7.587v-19.667c0-4.184-3.405-7.587-7.59-7.587h-29.592a1.29 1.29 0 1 1 0-2.58h29.592c5.608 0 10.17 4.561 10.17 10.167zm-28.31 2.797v6.696l9.756-.007a1.29 1.29 0 0 1 .001 2.58l-9.757.006v7.987a1.29 1.29 0 0 1-2.58 0v-18.552c0-.712.577-1.29 1.29-1.29l12.767-.002a1.29 1.29 0 1 1 0 2.58zm17.838 3.398v13.864a1.29 1.29 0 0 1-2.58 0v-13.864a1.29 1.29 0 0 1 2.58 0zm.09-4.6c0 .761-.62 1.38-1.38 1.38-.761 0-1.38-.619-1.38-1.38a1.382 1.382 0 0 1 2.76 0zm-38.753 4.6v13.864a1.29 1.29 0 0 1-2.58 0v-13.864a1.29 1.29 0 0 1 2.58 0zm.09-4.6c0 .761-.62 1.38-1.38 1.38-.762 0-1.381-.619-1.381-1.38a1.382 1.382 0 0 1 2.761 0zm-17.928-.038v14.355l4.02-5.837a1.29 1.29 0 0 1 1.062-.559h.001c.424 0 .82.208 1.062.557l4.041 5.85v-14.418a1.29 1.29 0 0 1 2.58 0v18.554a1.29 1.29 0 0 1-2.351.733l-5.33-7.714-5.312 7.712a1.29 1.29 0 0 1-2.354-.73v-18.503a1.29 1.29 0 0 1 2.581 0z"/></defs><g><g transform="translate(-1331 -1159)"><use xlink:href="#llfaa"/></g></g></svg>