<svg xmlns="http://www.w3.org/2000/svg" xmlns:xlink="http://www.w3.org/1999/xlink" width="72" height="81" viewBox="0 0 72 81"><defs><path id="4xdba" d="M1403.851 987.187v-4.144a4.85 4.85 0 0 0-3.768-4.729l-5.157-1.212v24.773h8.925v-3.36c0-.862.705-1.562 1.574-1.562.87 0 1.575.7 1.575 1.562v4.922c0 .863-.705 1.563-1.575 1.563h-68.851c-.87 0-1.574-.7-1.574-1.563v-20.398c0-3.716 2.543-6.91 6.185-7.769l20.28-4.78v-4.53l.002-.055c-2.967-2.238-5.091-5.52-5.814-9.289-2.932-.024-5.31-2.397-5.31-5.311 0-1.856.965-3.492 2.421-4.442a1.545 1.545 0 0 1-.308-.926V943.1c0-6.764 3.757-12.672 9.308-15.778.071-.049.148-.09.228-.127a18.232 18.232 0 0 1 8.7-2.196h.615c3.149 0 6.113.796 8.701 2.196.08.037.157.078.228.127 5.55 3.106 9.308 9.014 9.308 15.778v2.836c0 .347-.116.667-.309.926a5.302 5.302 0 0 1 2.421 4.442c0 2.914-2.378 5.287-5.309 5.311-.73 3.806-2.888 7.115-5.899 9.354v4.52l20.36 4.783c3.646.856 6.192 4.051 6.192 7.77v4.144c0 .863-.705 1.563-1.574 1.563-.87 0-1.574-.7-1.575-1.563zm-25.34-13.941a1.455 1.455 0 0 1-.165-.05l-5.12 5.082 4.077 4.046 7.627-7.57zm-1.211-3.431v-2.037a15.378 15.378 0 0 1-6.046 1.231h-.509c-2.179 0-4.253-.453-6.133-1.269v1.988l6.388 6.34zm9.319-16.348a2.194 2.194 0 0 0 1.889-2.162c0-1.1-.823-2.01-1.89-2.163zm-31.238-4.325a2.194 2.194 0 0 0-1.89 2.163c0 1.1.824 2.01 1.89 2.162zm7.433-9.767h16.371a6.612 6.612 0 0 1 6.421 5h.789V943.1c0-4.937-2.42-9.323-6.143-12.053l-1.787 5.894a1.574 1.574 0 0 1-1.96 1.046 1.56 1.56 0 0 1-1.055-1.947l2.006-6.615a15.064 15.064 0 0 0-4.882-1.248v7.785c0 .862-.705 1.562-1.574 1.562-.87 0-1.574-.7-1.574-1.562v-7.785c-1.726.143-3.37.575-4.883 1.248l2.006 6.615a1.56 1.56 0 0 1-1.054 1.947 1.573 1.573 0 0 1-1.961-1.046l-1.787-5.894c-3.723 2.73-6.142 7.116-6.142 12.053v1.274h.789a6.612 6.612 0 0 1 6.42-5zm16.371 3.125h-16.371a3.47 3.47 0 0 0-3.084 1.875h22.54a3.47 3.47 0 0 0-3.085-1.875zm-8.44 23.384h.51c6.735 0 12.215-5.439 12.215-12.125v-6.26h-24.94v6.26c0 6.686 5.48 12.125 12.215 12.125zm-13.689 8.857l7.64 7.583 4.078-4.046-5.144-5.106c-.074.03-.15.055-.228.073zm-.54 3.884v8.873h28.965v-8.871l-7.065 7.013c-.307.304-.71.457-1.113.457s-.806-.153-1.113-.457l-5.19-5.153-5.19 5.152c-.615.61-1.612.61-2.227 0zm-6.296 8.873h3.148v-11.887l-3.148.742zm-3.149-10.403l-5.158 1.216a4.85 4.85 0 0 0-3.765 4.728v18.836h8.923zm44.707 13.529h-41.558v11.25h41.558zm0-14.261l-3.149-.74v11.875h3.149zm15.221 16.398a1.568 1.568 0 0 1-1.574 1.562 1.568 1.568 0 0 1-1.574-1.563 1.567 1.567 0 0 1 1.574-1.562 1.566 1.566 0 0 1 1.574 1.562zM1356.514 995a1.567 1.567 0 0 1-1.574 1.562 1.566 1.566 0 0 1-1.574-1.562 1.569 1.569 0 0 1 1.574-1.563 1.569 1.569 0 0 1 1.574 1.563zm32.115 0c0 .41-.167.814-.461 1.104a1.59 1.59 0 0 1-1.113.458 1.567 1.567 0 0 1-1.574-1.562 1.57 1.57 0 0 1 1.574-1.563c.414 0 .82.168 1.113.458.294.29.46.694.46 1.105zm-7.694-37.286a1.503 1.503 0 0 1-.027.079c-.585 1.575-2.627 4.074-5.618 4.074-1.751 0-3.17-.373-4.293-1.136-1.124.763-2.542 1.136-4.294 1.136-2.99 0-5.033-2.499-5.618-4.074a1.607 1.607 0 0 1-.027-.08c-.25-.804-.013-1.613.604-2.06.237-.173 1.094-.676 2.187.076l.067.045c.044.002.111.004.214.004.226 0 .723-.343 1.122-.619.843-.58 1.997-1.377 3.565-1.377.554 0 1.321.121 2.18.605.858-.484 1.625-.605 2.18-.605 1.567 0 2.721.796 3.564 1.377.4.276.897.619 1.123.619.102 0 .17-.002.214-.004l.066-.045c1.093-.752 1.95-.249 2.187-.077.617.448.854 1.257.604 2.062zm-10.992-.247c-.574-.505-.978-.56-1.126-.56-.581 0-1.131.38-1.768.818-.398.275-.822.568-1.297.792.295.14.615.225.951.225 1.906 0 2.625-.559 3.077-1.105.05-.06.105-.117.163-.17zm6.298 1.05c-.475-.224-.899-.517-1.297-.792-.636-.439-1.186-.818-1.768-.818-.147 0-.551.055-1.126.56.058.052.113.11.163.17.452.546 1.172 1.105 3.077 1.105.336 0 .656-.086.951-.225zm-2.959 38.67c0 .863-.705 1.563-1.574 1.563h-8.028c-.87 0-1.574-.7-1.574-1.563s.704-1.562 1.574-1.562h8.028c.87 0 1.574.7 1.574 1.562zm6.612 0a1.567 1.567 0 0 1-1.574 1.563 1.566 1.566 0 0 1-1.574-1.562 1.569 1.569 0 0 1 1.574-1.563c.414 0 .82.167 1.113.457.292.291.46.694.46 1.105z"/></defs><g><g transform="translate(-1335 -925)"><use xlink:href="#4xdba"/><use fill-opacity="0" stroke="#fff" stroke-linecap="round" stroke-linejoin="round" stroke-miterlimit="50" xlink:href="#4xdba"/></g></g></svg>