<svg xmlns="http://www.w3.org/2000/svg" xmlns:xlink="http://www.w3.org/1999/xlink" width="30" height="40" viewBox="0 0 30 40"><defs><path id="bneta" d="M409 324.898c0 5.67-2.727 9.24-7.676 15.723-1.928 2.525-4.114 5.388-6.675 9.042a.792.792 0 0 1-1.298 0c-2.567-3.663-4.754-6.528-6.684-9.056-4.944-6.476-7.667-10.044-7.667-15.709 0-8.215 6.729-14.899 15-14.899 8.27 0 15 6.684 15 14.9zm-1.58 0c0-7.354-6.02-13.337-13.42-13.337s-13.421 5.983-13.421 13.337c0 5.141 2.455 8.358 7.347 14.767 1.775 2.325 3.767 4.933 6.074 8.187 2.302-3.246 4.291-5.852 6.064-8.173 4.898-6.416 7.357-9.635 7.357-14.78zm-3.197-.055c0 5.6-4.603 10.156-10.263 10.156-5.659 0-10.263-4.556-10.263-10.156 0-5.6 4.604-10.156 10.263-10.156 5.66 0 10.264 4.555 10.264 10.156zm-1.578 0c0-4.739-3.896-8.594-8.685-8.594-4.788 0-8.684 3.855-8.684 8.594 0 4.738 3.896 8.594 8.684 8.594 4.789 0 8.685-3.856 8.685-8.594z"/></defs><g><g transform="translate(-379 -310)"><use fill="#333" xlink:href="#bneta"/></g></g></svg>