<svg xmlns="http://www.w3.org/2000/svg" xmlns:xlink="http://www.w3.org/1999/xlink" width="38" height="40" viewBox="0 0 38 40"><defs><path id="vp6na" d="M393.345 567.666h9.172V577h-9.172zm1.31 8h6.552V569h-6.552zm-15.069-8h10.483a.66.66 0 0 1 .655.667.66.66 0 0 1-.655.667h-10.483a.66.66 0 0 1-.655-.667.66.66 0 0 1 .655-.667zm0 4h10.483a.66.66 0 0 1 .655.667.66.66 0 0 1-.655.667h-10.483a.66.66 0 0 1-.655-.667.66.66 0 0 1 .655-.667zm0 4h10.483a.66.66 0 0 1 .655.667.66.66 0 0 1-.655.667h-10.483a.66.66 0 0 1-.655-.667.66.66 0 0 1 .655-.667zm0 4h21.62a.66.66 0 0 1 .656.667.66.66 0 0 1-.655.666h-21.62a.66.66 0 0 1-.656-.666.66.66 0 0 1 .655-.667zm11.793 4h9.828a.66.66 0 0 1 .655.667.66.66 0 0 1-.655.667h-9.828a.66.66 0 0 1-.655-.667.66.66 0 0 1 .655-.667zm0 4h9.828a.66.66 0 0 1 .655.667.66.66 0 0 1-.655.667h-9.828a.66.66 0 0 1-.655-.667.66.66 0 0 1 .655-.667zm0 4h9.828a.66.66 0 0 1 .655.667.66.66 0 0 1-.655.667h-9.828a.66.66 0 0 1-.655-.667.66.66 0 0 1 .655-.667zM388.103 593h-9.172v-9.334h9.172zm-1.31-8h-6.552v6.666h6.552zM375 565.666c0-.011.006-.02.007-.032V557h31.441v20H413v16c0 2.206-1.763 4-3.931 4H378.93c-2.164 0-3.924-1.792-3.924-3.993v-27.309c-.001-.011-.007-.02-.007-.032zm1.317-7.333V565h28.82v-6.667zM411.69 593v-14.667h-5.242V593c0 1.47 1.176 2.666 2.621 2.666s2.62-1.196 2.62-2.666zm-32.76 2.666h27.21c-.01-.012-.017-.026-.027-.038a3.99 3.99 0 0 1-.692-1.147l-.03-.082a4.033 4.033 0 0 1-.178-.633l-.01-.06a4.039 4.039 0 0 1-.065-.706v-26.667h-28.821v26.674c0 1.466 1.173 2.66 2.614 2.66zm3.932-36h15.724v4h-15.724zm1.31 2.667h13.104V561h-13.104z"/></defs><g><g transform="translate(-375 -557)"><use fill="#333" xlink:href="#vp6na"/></g></g></svg>