<svg xmlns="http://www.w3.org/2000/svg" xmlns:xlink="http://www.w3.org/1999/xlink" width="40" height="30" viewBox="0 0 40 30"><defs><path id="9f0sa" d="M413.479 265.534c.285.404.462.872.512 1.362 0 .69-.367 1.202-1.52 1.202h-3.938v1.681c.005 1.218-.992 2.21-2.229 2.22h-24.582a2.256 2.256 0 0 1-1.59-.648l-.042-.05a2.183 2.183 0 0 1-.598-1.58v-1.682h-3.937c-1.154 0-1.52-.513-1.52-1.202.05-.49.226-.958.512-1.362l1.238-2.17-1.272-2.151a2.87 2.87 0 0 1-.513-1.362c0-.69.367-1.203 1.52-1.203h5.125a13.293 13.293 0 0 1-.205-5.13c1.147-7.37 8.147-12.43 15.636-11.301 7.489 1.128 12.63 8.018 11.484 15.39-.057.352-.126.7-.205 1.042h5.124c1.154 0 1.52.512 1.52 1.202-.05.49-.226.958-.512 1.362l-.008.059-1.273 2.11zm-31.33-6.945h1.187c-.097-.33-.18-.664-.248-1-.239-1.294-.239-2.62 0-3.913 1.098-5.938 6.88-9.876 12.913-8.796s10.034 6.77 8.936 12.71c-.068.335-.15.669-.247 1h1.187a11.969 11.969 0 0 0-3.2-11.598c-4.788-4.71-12.549-4.709-17.334.004-3.076 3.035-4.292 7.445-3.194 11.593zm4.552 1.497v1.589h14.623v-1.59c0-.396.16-.777.444-1.058l.052-.05c.28-.254.645-.395 1.025-.396h.316c.143-.412.257-.833.341-1.261a9.434 9.434 0 0 0 .171-1.799c0-5.254-4.327-9.512-9.664-9.512-5.338 0-9.665 4.258-9.665 9.512 0 .604.056 1.206.17 1.799.085.428.2.849.342 1.261h.316c.38.001.746.142 1.025.395l.052.05c.288.28.45.662.452 1.06zm-6.56 2.228a2.256 2.256 0 0 1 1.58-.647h3.502v-1.59a.066.066 0 0 0 0-.042h-9.66c.06.127.154.278.23.412l1.478 2.523c.133.223.133.5 0 .723l-1.477 2.522a4.98 4.98 0 0 0-.23.412h3.928v-2.741a2.185 2.185 0 0 1 .64-1.564zm26.949 1.606a.767.767 0 0 0-.23-.547.791.791 0 0 0-.556-.227h-24.557a.78.78 0 0 0-.786.774v5.885c0 .192.073.378.205.52a.792.792 0 0 0 .556.228h24.573a.788.788 0 0 0 .786-.774zm1.443 2.698h3.904c-.06-.126-.154-.277-.23-.412l-1.479-2.522a.705.705 0 0 1 0-.723l1.478-2.522h.026c.077-.135.162-.286.23-.395h-9.677a.065.065 0 0 0 0 .042v1.589h3.51a2.256 2.256 0 0 1 1.58.647c.423.415.66.977.658 1.564zm-9.455-13.073l-1.82 1.984.29 2.7a.705.705 0 0 1-.074.4.732.732 0 0 1-.976.314l-2.485-1.093-2.52 1.151a.737.737 0 0 1-.374.058.717.717 0 0 1-.642-.789l.29-2.698-1.845-2.035a.71.71 0 0 1-.17-.332.715.715 0 0 1 .563-.845l2.699-.563 1.375-2.354a.732.732 0 0 1 1.256 0l1.375 2.328 2.7.564c.14.029.27.099.37.2a.707.707 0 0 1-.012 1.01zm-1.905-.025l-1.776-.37a.726.726 0 0 1-.479-.344l-.905-1.522-.854 1.522a.727.727 0 0 1-.539.353l-1.76.361 1.188 1.295c.16.153.238.37.214.588l-.197 1.783 1.657-.732a.738.738 0 0 1 .59 0l1.657.732-.197-1.783a.707.707 0 0 1 .18-.554z"/></defs><g><g transform="translate(-374 -242)"><use fill="#333" xlink:href="#9f0sa"/></g></g></svg>