<?xml version="1.0" encoding="UTF-8"?>
<!DOCTYPE svg PUBLIC "-//W3C//DTD SVG 1.1//EN" "http://www.w3.org/Graphics/SVG/1.1/DTD/svg11.dtd">
<!-- Creator: CorelDRAW 2017 -->
<svg xmlns="http://www.w3.org/2000/svg" xml:space="preserve" width="205mm" height="55.0002mm" version="1.1" style="shape-rendering:geometricPrecision; text-rendering:geometricPrecision; image-rendering:optimizeQuality; fill-rule:evenodd; clip-rule:evenodd"
viewBox="0 0 20500 5500.02"
 xmlns:xlink="http://www.w3.org/1999/xlink">
 <defs>
  <style type="text/css">
   <![CDATA[
    .fil0 {fill:none}
    .fil4 {fill:#FACFBD}
    .fil1 {fill:#E31E24}
    .fil2 {fill:#293F65}
    .fil3 {fill:white}
   ]]>
  </style>
 </defs>
 <g id="Слой_x0020_1">
  <metadata id="CorelCorpID_0Corel-Layer"/>
  <polygon class="fil0" points="-0,0 20500,0 20500,5500.02 -0,5500.02 "/>
  <path class="fil1" d="M9664.24 3253.24c63.84,-109.56 78.03,-206.24 35.47,-257.79 -37.24,-50.76 -90.78,-91.64 -155.85,-109.71 -117.55,-32.62 -234.07,-23.8 -352.48,-0.94 -90.91,17.55 -190.61,58.99 -279.05,110.65 -106.41,51.55 -205.72,148.23 -276.65,257.79 -128.34,233.2 -31.09,376.12 231.81,395.99 298.82,22.59 639.58,-138.97 796.75,-395.99zm-9414.24 692.45l1529.15 -861.87 -476.12 -259.54 931.08 3.12 2290.34 -1290.9 11.13 -11.53 272.87 2024.2 578.4 -972.63 1000.18 0c184.43,0 305.02,19.33 361.77,64.44 96.82,76.97 109.15,183.16 35.47,283.57 -35.47,64.45 -106.4,128.9 -191.53,174.01 -99.3,51.56 -205.71,90.23 -297.92,103.12l-7.1 6.44c112.09,0 237.38,72.64 266.39,177.89 58.4,211.88 -273.29,437.06 -434.16,492.55 -139.78,48.22 -328.43,66.25 -507.97,66.25l-1813.28 -0.02 -1024.2 -409.7 -1557.47 409.69 -967.03 0.91zm5633.39 -834.24c85.13,0 148.97,-12.89 191.53,-25.78 76.53,-23.17 201.78,-97.36 148.96,-193.34 -14.18,-32.22 -85.12,-45.11 -184.43,-45.11l-241.18 0 -156.05 264.23 241.17 0zm-305.02 554.25c137.07,0 316.98,-20.62 397.24,-148.23 21.28,-38.67 14.19,-70.89 -7.09,-83.78 -36.39,-44.07 -162.04,-51.56 -219.9,-51.56l-7.1 0 -262.46 0 -170.24 283.57 269.55 0zm1723.73 -766.93l-461.08 0 198.62 -322.23 1482.54 0 -198.62 322.23 -453.98 0 -617.14 1037.61 -567.48 0 617.14 -1037.61zm1418.7 1076.28c-361.77,0 -595.86,-77.34 -688.07,-219.12 -99.31,-141.79 -99.31,-315.79 14.19,-502.69 113.49,-186.9 305.02,-354.47 574.57,-496.25 269.56,-141.79 588.76,-219.12 957.63,-219.12 361.76,0 595.85,70.89 695.16,212.67 92.22,141.79 92.22,315.8 -21.28,502.7 -106.4,186.9 -305.02,360.9 -574.57,502.69 -269.56,141.78 -595.86,219.12 -957.63,219.12l0 0z"/>
  <path class="fil2" d="M17254.3 2576.54l-496.55 818.48 1276.84 -818.48 567.48 0 -808.66 1359.84 -553.3 0 482.36 -812.04 -1262.64 812.04 -574.58 0 808.66 -1359.84 560.39 0zm-1801.75 322.23l-461.08 0 191.52 -322.23 1482.55 0 -191.53 322.23 -461.08 0 -617.13 1037.61 -560.39 0 617.14 -1037.61zm-4532.76 -322.23l567.48 0 -134.78 831.37 858.32 -831.37 574.57 0 -510.73 1359.84 -553.29 0 312.11 -786.26 -808.66 786.26 -368.86 0 120.59 -786.26 -617.14 786.26 -553.29 0 1113.68 -1359.84zm3335.73 676.7c63.84,-109.56 78.02,-206.24 35.46,-257.79 -37.24,-50.76 -90.77,-91.64 -155.85,-109.71 -117.54,-32.62 -234.06,-23.8 -352.47,-0.94 -90.91,17.55 -190.61,58.99 -279.06,110.65 -106.4,51.55 -205.71,148.23 -276.64,257.79 -128.34,233.2 -31.09,376.12 231.8,395.99 298.83,22.59 639.59,-138.97 796.76,-395.99zm-943.44 721.81c-361.77,0 -595.86,-77.34 -688.07,-219.12 -99.31,-141.79 -99.31,-315.79 14.19,-502.69 113.49,-186.9 305.02,-354.47 574.57,-496.25 269.55,-141.79 588.76,-219.12 957.63,-219.12 361.76,0 595.85,70.89 695.16,212.67 92.21,141.79 92.21,315.8 -21.28,502.7 -106.4,186.9 -305.02,360.9 -574.58,502.69 -269.55,141.78 -595.85,219.12 -957.62,219.12l0 0zm5229.67 -964.06l263.37 -442.88 0.36 0 -263.73 442.88zm1263.56 -442.88c184.43,0 305.02,19.33 361.77,64.45 96.81,76.96 109.14,183.16 35.46,283.57 -35.46,64.44 -106.4,128.89 -191.52,174 -99.31,51.56 -205.71,90.23 -297.93,103.12l-7.09 6.45c112.08,0 237.37,72.63 266.38,177.89 58.4,211.87 -273.29,437.05 -434.16,492.54 -139.78,48.22 -328.42,66.25 -507.96,66.25l-1039.15 0 -0.42 0 235.95 -396.23 0.08 0.6 315.03 -529.76 263.73 -442.88 1.94 0 997.89 0zm-808.66 1089.16c137.06,0 316.97,-20.61 397.23,-148.22 21.28,-38.67 14.19,-70.9 -7.09,-83.79 -36.38,-44.07 -162.04,-51.56 -219.9,-51.56l-7.09 0 -262.46 0 -170.25 283.57 269.56 0zm305.02 -554.25c85.12,0 148.96,-12.89 191.52,-25.77 76.53,-23.18 201.79,-97.37 148.96,-193.35 -14.18,-32.22 -85.12,-45.11 -184.43,-45.11l-241.18 0 -156.05 264.23 241.18 0z"/>
  <polygon class="fil3" points="1526.08,2885.21 4722.01,2895.85 3668.4,3369.15 2497.74,3379.79 "/>
  <polygon class="fil4" points="1426.93,2870.99 2790.93,2870.99 3624.77,2378.51 3679.03,2864.09 4722.01,2895.84 3735.71,3370.76 3798.7,3944.79 2774.5,3535.09 1217.01,3944.79 2158.53,3251.54 "/>
  <path class="fil2" d="M5706.78 2279.1l0 -513.6 -242.85 0 0 -68.74 584.25 0 0 68.74 -243.89 0 0 513.6 -97.51 0zm365.43 -283.65c0,-96.67 32.79,-172.33 98.52,-226.96 65.76,-54.65 150.55,-82.03 254.56,-82.03 67.96,0 129.43,12.89 183.99,38.51 54.59,25.76 96.29,61.54 124.97,107.51 28.65,45.83 42.91,98.03 42.91,156.19 0,59.12 -14.94,112.01 -45.14,158.5 -30.21,46.65 -72.94,81.89 -128.22,105.89 -55.45,24.02 -114.99,35.94 -179.02,35.94 -69.51,0 -131.49,-13.15 -186.06,-39.73 -54.76,-26.44 -96.13,-62.63 -124.28,-108.46 -28.14,-45.7 -42.23,-94.24 -42.23,-145.36zm100.61 1.22c0,70.25 23.85,125.42 71.56,165.83 47.89,40.4 107.79,60.61 179.89,60.61 73.45,0 133.87,-20.35 181.23,-61.15 47.38,-40.81 71.24,-98.71 71.24,-173.69 0,-47.31 -10.3,-88.67 -30.56,-124.05 -20.25,-35.39 -49.94,-62.79 -88.9,-82.32 -39.13,-19.38 -82.91,-29.15 -131.49,-29.15 -69.15,0 -128.54,18.73 -178.31,56.28 -49.79,37.43 -74.66,100.05 -74.66,187.64zm730.15 282.43l0 -582.34 278.07 0c48.91,0 86.34,1.91 112.08,5.55 36.21,4.76 66.59,13.84 91.13,27.27 24.39,13.29 44.11,32.13 59.06,56.13 14.92,24.14 22.31,50.56 22.31,79.45 0,49.5 -19.92,91.52 -59.74,125.82 -39.98,34.18 -112.08,51.4 -216.26,51.4l-189.15 0 0 236.72 -97.5 0zm97.5 -305.46l190.7 0c62.99,0 107.79,-9.22 134.2,-27.81 26.45,-18.56 39.67,-44.6 39.67,-78.22 0,-24.42 -7.74,-45.29 -23.35,-62.65 -15.6,-17.34 -36.03,-28.75 -61.62,-34.3 -16.47,-3.39 -46.69,-5.16 -90.95,-5.16l-188.65 0 0 208.14zm590.95 -276.88l476.67 0 0 68.74 -379.16 0 0 513.6 -97.51 0 0 -582.34zm468.6 298.69c0,-96.67 32.79,-172.33 98.52,-226.96 65.76,-54.65 150.55,-82.03 254.55,-82.03 67.96,0 129.43,12.89 184,38.51 54.59,25.76 96.29,61.54 124.96,107.51 28.66,45.83 42.92,98.03 42.92,156.19 0,59.12 -14.95,112.01 -45.15,158.5 -30.2,46.65 -72.94,81.89 -128.21,105.89 -55.46,24.02 -115,35.94 -179.03,35.94 -69.51,0 -131.49,-13.15 -186.05,-39.73 -54.77,-26.44 -96.14,-62.63 -124.28,-108.46 -28.15,-45.7 -42.23,-94.24 -42.23,-145.36zm100.6 1.22c0,70.25 23.86,125.42 71.57,165.83 47.89,40.4 107.78,60.61 179.89,60.61 73.44,0 133.87,-20.35 181.23,-61.15 47.38,-40.81 71.23,-98.71 71.23,-173.69 0,-47.31 -10.3,-88.67 -30.55,-124.05 -20.25,-35.39 -49.95,-62.79 -88.9,-82.32 -39.14,-19.38 -82.92,-29.15 -131.49,-29.15 -69.16,0 -128.55,18.73 -178.31,56.28 -49.8,37.43 -74.67,100.05 -74.67,187.64zm726.04 282.43l0 -582.34 276.68 0c56.32,0 101.44,5.98 135.42,17.62 34.16,11.81 60.79,29.97 80,54.51 19.24,24.42 29.01,50.04 29.01,76.88 0,24.82 -8.58,48.28 -25.74,70.23 -17,21.97 -42.91,39.73 -77.43,53.29 44.64,10.3 78.8,27.92 102.81,52.74 24.04,24.94 36.06,54.37 36.06,88.27 0,27.25 -7.38,52.61 -21.97,76.06 -14.6,23.46 -32.62,41.5 -54.06,54.23 -21.47,12.75 -48.42,22.23 -80.68,28.75 -32.28,6.51 -71.92,9.76 -118.95,9.76l-281.15 0zm97.66 -337.6l159.46 0c43.09,0 74.15,-2.3 93.03,-6.78 24.72,-5.83 43.43,-15.45 55.96,-29.02 12.52,-13.56 18.89,-30.5 18.89,-50.84 0,-19.25 -5.84,-36.33 -17.51,-50.99 -11.86,-14.77 -28.68,-24.81 -50.31,-30.23 -21.8,-5.43 -59.2,-8.14 -112.25,-8.14l-147.27 0 0 176zm0 268.86l183.49 0c31.6,0 53.73,-0.94 66.42,-2.71 22.48,-3.27 41.21,-8.54 56.31,-16 15.1,-7.31 27.46,-18.18 37.23,-32.27 9.62,-14.24 14.6,-30.51 14.6,-49.08 0,-21.69 -7.03,-40.54 -21.12,-56.67 -14.06,-16 -33.63,-27.27 -58.7,-33.76 -24.87,-6.38 -60.94,-9.63 -107.79,-9.63l-170.44 0 0 200.12zm529.51 -214.91c0,-96.67 32.78,-172.33 98.52,-226.96 65.75,-54.65 150.54,-82.03 254.55,-82.03 67.96,0 129.43,12.89 183.99,38.51 54.59,25.76 96.29,61.54 124.97,107.51 28.65,45.83 42.92,98.03 42.92,156.19 0,59.12 -14.95,112.01 -45.15,158.5 -30.2,46.65 -72.94,81.89 -128.22,105.89 -55.45,24.02 -114.99,35.94 -179.02,35.94 -69.51,0 -131.49,-13.15 -186.05,-39.73 -54.77,-26.44 -96.14,-62.63 -124.28,-108.46 -28.15,-45.7 -42.23,-94.24 -42.23,-145.36zm100.6 1.22c0,70.25 23.85,125.42 71.57,165.83 47.89,40.4 107.78,60.61 179.88,60.61 73.45,0 133.88,-20.35 181.23,-61.15 47.39,-40.81 71.24,-98.71 71.24,-173.69 0,-47.31 -10.3,-88.67 -30.55,-124.05 -20.26,-35.39 -49.95,-62.79 -88.91,-82.32 -39.13,-19.38 -82.91,-29.15 -131.49,-29.15 -69.15,0 -128.54,18.73 -178.31,56.28 -49.79,37.43 -74.66,100.05 -74.66,187.64zm683.3 107.66l0 -71.85 278.23 0 0 71.85 -278.23 0zm915.72 -29.41l97.66 19.52c-20.43,63.17 -57.33,111.45 -110.37,144.81 -53.2,33.22 -118.09,49.75 -194.99,49.75 -79.46,0 -144,-12.75 -193.77,-38.25 -49.79,-25.62 -87.71,-62.62 -113.64,-111.04 -25.92,-48.53 -38.96,-100.6 -38.96,-156.19 0,-60.6 14.59,-113.47 43.96,-158.64 29.33,-45.14 71.06,-79.44 125.29,-102.9 54.06,-23.45 113.62,-35.12 178.67,-35.12 73.8,0 135.78,14.79 186.05,44.48 50.3,29.69 85.33,71.31 105.05,125.14l-95.94 17.9c-17.15,-42.44 -41.87,-73.21 -74.48,-92.6 -32.46,-19.38 -73.3,-29.03 -122.74,-29.03 -56.64,0 -103.85,10.73 -141.94,32.14 -38.12,21.57 -64.89,50.3 -80.17,86.5 -15.43,36.07 -23.17,73.36 -23.17,111.73 0,49.62 9.11,92.74 27.3,129.75 18.35,36.88 46.68,64.55 85.3,82.85 38.63,18.31 80.33,27.39 125.3,27.39 54.59,0 100.75,-12.47 138.69,-37.29 37.92,-24.94 63.5,-61.97 76.9,-110.9zm219.89 204.18l0 -582.34 532.93 0 0 68.74 -435.45 0 0 178.31 407.81 0 0 68.32 -407.81 0 0 198.23 452.6 0 0 68.74 -550.08 0zm684.82 0l0 -582.34 278.08 0c48.9,0 86.34,1.91 112.07,5.55 36.22,4.76 66.59,13.84 91.14,27.27 24.39,13.29 44.1,32.13 59.05,56.13 14.93,24.14 22.31,50.56 22.31,79.45 0,49.5 -19.92,91.52 -59.74,125.82 -39.97,34.18 -112.07,51.4 -216.25,51.4l-189.15 0 0 236.72 -97.51 0zm97.51 -305.46l190.69 0c62.99,0 107.79,-9.22 134.21,-27.81 26.44,-18.56 39.66,-44.6 39.66,-78.22 0,-24.42 -7.74,-45.29 -23.34,-62.65 -15.61,-17.34 -36.04,-28.75 -61.62,-34.3 -16.48,-3.39 -46.7,-5.16 -90.96,-5.16l-188.64 0 0 208.14zm585.29 305.46l0 -582.34 276.68 0c56.31,0 101.44,5.98 135.42,17.62 34.16,11.81 60.78,29.97 79.99,54.51 19.24,24.42 29.01,50.04 29.01,76.88 0,24.82 -8.58,48.28 -25.73,70.23 -17.01,21.97 -42.92,39.73 -77.43,53.29 44.64,10.3 78.8,27.92 102.81,52.74 24.03,24.94 36.06,54.37 36.06,88.27 0,27.25 -7.39,52.61 -21.98,76.06 -14.59,23.46 -32.61,41.5 -54.06,54.23 -21.47,12.75 -48.42,22.23 -80.68,28.75 -32.28,6.51 -71.92,9.76 -118.95,9.76l-281.14 0zm97.65 -337.6l159.46 0c43.09,0 74.16,-2.3 93.04,-6.78 24.72,-5.83 43.42,-15.45 55.96,-29.02 12.51,-13.56 18.88,-30.5 18.88,-50.84 0,-19.25 -5.84,-36.33 -17.51,-50.99 -11.85,-14.77 -28.68,-24.81 -50.3,-30.23 -21.8,-5.43 -59.21,-8.14 -112.25,-8.14l-147.28 0 0 176zm0 268.86l183.49 0c31.6,0 53.73,-0.94 66.42,-2.71 22.49,-3.27 41.21,-8.54 56.32,-16 15.1,-7.31 27.46,-18.18 37.23,-32.27 9.61,-14.24 14.59,-30.51 14.59,-49.08 0,-21.69 -7.03,-40.54 -21.12,-56.67 -14.06,-16 -33.62,-27.27 -58.7,-33.76 -24.87,-6.38 -60.93,-9.63 -107.78,-9.63l-170.45 0 0 200.12zm594.91 -513.6l88.4 0 0 461.13 392.2 -461.13 98.19 0 0 582.34 -88.57 0 0 -460.03 -392.71 460.03 -97.51 0 0 -582.34zm1264.68 378.16l97.66 19.52c-20.43,63.17 -57.33,111.45 -110.37,144.81 -53.2,33.22 -118.09,49.75 -194.99,49.75 -79.46,0 -144,-12.75 -193.77,-38.25 -49.79,-25.62 -87.71,-62.62 -113.64,-111.04 -25.91,-48.53 -38.96,-100.6 -38.96,-156.19 0,-60.6 14.59,-113.47 43.96,-158.64 29.34,-45.14 71.06,-79.44 125.29,-102.9 54.06,-23.45 113.62,-35.12 178.67,-35.12 73.8,0 135.78,14.79 186.05,44.48 50.3,29.69 85.33,71.31 105.05,125.14l-95.94 17.9c-17.15,-42.44 -41.87,-73.21 -74.48,-92.6 -32.46,-19.38 -73.3,-29.03 -122.74,-29.03 -56.64,0 -103.85,10.73 -141.94,32.14 -38.12,21.57 -64.89,50.3 -80.17,86.5 -15.43,36.07 -23.17,73.36 -23.17,111.73 0,49.62 9.11,92.74 27.31,129.75 18.34,36.88 46.67,64.55 85.29,82.85 38.63,18.31 80.33,27.39 125.3,27.39 54.59,0 100.75,-12.47 138.7,-37.29 37.91,-24.94 63.49,-61.97 76.89,-110.9zm220.72 204.18l0 -582.34 97.69 0 0 239.17 383.09 0 0 -239.17 97.66 0 0 582.34 -97.66 0 0 -274.43 -383.09 0 0 274.43 -97.69 0zm659.81 0l283.2 -582.34 105.04 0 301.76 582.34 -111.21 0 -86.01 -176.4 -308.25 0 -80.86 176.4 -103.67 0zm212.67 -239.17l250.08 0 -77.07 -161.22c-23.35,-48.93 -40.86,-89.21 -52.18,-120.8 -9.44,37.42 -22.66,74.43 -39.82,111.32l-81.01 170.7zm1138.5 239.17l0 -582.34 -326.8 0c-65.76,0 -115.71,5.29 -149.87,15.74 -34.16,10.42 -61.44,28.87 -82.05,55.31 -20.4,26.58 -30.53,55.87 -30.53,87.87 0,41.34 16.8,76.06 50.81,104.38 33.81,28.35 86.16,46.37 156.87,54.11 -25.91,9.77 -45.48,19.39 -58.88,29.01 -28.48,20.61 -55.43,46.51 -81.01,77.43l-128.22 158.49 122.74 0 97.48 -121.21c28.5,-34.84 52,-61.7 70.55,-80.13 18.35,-18.58 34.85,-31.59 49.44,-38.91 14.57,-7.46 29.34,-12.61 44.44,-15.6 11.16,-1.76 29.18,-2.7 54.41,-2.7l113.11 0 0 258.55 97.51 0zm-97.51 -325.27l-209.73 0c-44.46,0 -79.48,-3.65 -104.53,-10.99 -25.23,-7.31 -44.29,-18.96 -57.33,-34.98 -13.05,-16 -19.57,-33.34 -19.57,-52.18 0,-27.53 12.54,-50.18 37.94,-67.94 25.23,-17.77 65.22,-26.57 119.97,-26.57l233.25 0 0 192.66zm1070.03 121.09l97.66 19.52c-20.43,63.17 -57.33,111.45 -110.37,144.81 -53.2,33.22 -118.09,49.75 -194.99,49.75 -79.46,0 -144,-12.75 -193.77,-38.25 -49.79,-25.62 -87.71,-62.62 -113.65,-111.04 -25.91,-48.53 -38.95,-100.6 -38.95,-156.19 0,-60.6 14.59,-113.47 43.95,-158.64 29.34,-45.14 71.06,-79.44 125.3,-102.9 54.06,-23.45 113.62,-35.12 178.67,-35.12 73.8,0 135.77,14.79 186.05,44.48 50.3,29.69 85.32,71.31 105.04,125.14l-95.93 17.9c-17.15,-42.44 -41.87,-73.21 -74.49,-92.6 -32.46,-19.38 -73.29,-29.03 -122.73,-29.03 -56.64,0 -103.85,10.73 -141.94,32.14 -38.12,21.57 -64.9,50.3 -80.17,86.5 -15.44,36.07 -23.18,73.36 -23.18,111.73 0,49.62 9.12,92.74 27.31,129.75 18.35,36.88 46.67,64.55 85.3,82.85 38.63,18.31 80.32,27.39 125.3,27.39 54.59,0 100.75,-12.47 138.69,-37.29 37.92,-24.94 63.5,-61.97 76.9,-110.9zm219.88 204.18l0 -582.34 532.94 0 0 68.74 -435.46 0 0 178.31 407.82 0 0 68.32 -407.82 0 0 198.23 452.61 0 0 68.74 -550.09 0zm872.43 0l0 -513.6 -242.85 0 0 -68.74 584.25 0 0 68.74 -243.89 0 0 513.6 -97.51 0zm444.92 -582.34l97.66 0 0 248.67 175.92 0c82.23,0 141.62,7.6 178.52,22.63 36.9,15.06 63.32,35.67 79.46,61.57 16.14,26.02 24.21,52.74 24.21,80.27 0,45.01 -19.57,84.46 -58.37,118.36 -38.96,33.9 -111.39,50.84 -217.3,50.84l-280.1 0 0 -582.34zm97.66 516.85l178.51 0c72.43,0 119.61,-10.17 141.59,-30.5 21.8,-20.2 32.79,-44.6 32.79,-73.21 0,-23.34 -7.89,-43.12 -23.86,-59.4 -15.96,-16.26 -37.08,-26.84 -63.52,-31.6 -26.6,-4.73 -71.39,-7.17 -134.89,-7.17l-130.62 0 0 201.88z"/>
 </g>
</svg>

